<svg viewBox="0 0 32 32" xmlns="http://www.w3.org/2000/svg"><path d="M14.976562,1.300781C14.425781,2.300781,14.375,2.648438,14.300781,6.773438L14.199219,11.175781 13.125,11.699219 12.023438,12.226562 11.949219,11.050781C11.875,9.898438,11.875,9.875,11,9.875L10.125,9.875 10.125,11.601562 10.101562,13.351562 6.023438,15.523438C3.773438,16.726562 1.851562,17.851562 1.726562,18.050781 1.601562,18.226562 1.5,18.625 1.5,18.949219 1.5,19.398438 1.574219,19.476562 1.949219,19.300781 2.175781,19.175781 4.199219,18.425781 6.425781,17.648438 9.925781,16.425781 10.726562,16.25 12.324219,16.25L14.175781,16.25 14.324219,20.824219C14.398438,23.324219 14.574219,25.773438 14.726562,26.226562 15.050781,27.300781 14.699219,27.726562 12.324219,29.273438 11.125,30.074219 10.75,30.449219 10.75,30.898438 10.75,31.625 10.648438,31.625 13,31 15.425781,30.375 15.398438,30.375 15.601562,31.25 15.773438,32.226562 16.226562,32.226562 16.425781,31.25 16.601562,30.375 16.574219,30.375 19,31 21.351562,31.625 21.25,31.625 21.25,30.898438 21.25,30.449219 20.875,30.074219 19.675781,29.273438 17.300781,27.726562 16.949219,27.300781 17.273438,26.226562 17.425781,25.773438 17.601562,23.324219 17.675781,20.824219L17.824219,16.25 19.675781,16.25C21.273438,16.25 22.074219,16.425781 25.574219,17.648438 27.800781,18.425781 29.824219,19.175781 30.074219,19.300781 30.425781,19.476562 30.5,19.398438 30.5,18.949219 30.5,18.625 30.398438,18.226562 30.273438,18.050781 30.148438,17.851562 28.226562,16.726562 25.976562,15.523438L21.898438,13.351562 21.875,11.601562 21.875,9.875 21,9.875C20.125,9.875,20.125,9.898438,20.050781,11.050781L19.976562,12.226562 18.851562,11.699219 17.75,11.148438 17.75,7.148438C17.726562,3 17.5,1.726562 16.601562,0.726562 15.976562,0.0234375 15.648438,0.125 14.976562,1.300781z"/></svg>
