<svg viewBox="0 0 32 32" xmlns="http://www.w3.org/2000/svg"><path d="M15.667969,0.25C15.242188,0.75 14.84375,1.789062 14.664062,2.875 14.488281,3.917969 14.4375,5.085938 14.4375,8L14.4375,10.851562 14.144531,11.074219C13.875,11.273438 12.210938,12.3125 12.15625,12.3125 12.144531,12.3125 12.125,11.960938 12.113281,11.542969 12.101562,11.007812 12.070312,10.738281 12.007812,10.667969 11.9375,10.582031 11.800781,10.5625 11.304688,10.5625 10.46875,10.5625 10.46875,10.554688 10.46875,11.867188 10.46875,12.820312 10.476562,12.84375 10.613281,12.90625 10.980469,13.070312 10.925781,13.105469 5.898438,16.242188 2.6875,18.25 1.007812,19.335938 0.914062,19.460938 0.835938,19.570312 0.613281,19.875 0.417969,20.136719 0.144531,20.511719 0.0625,20.667969 0.0625,20.84375 0.0625,20.960938 0.0742188,21.0625 0.09375,21.0625 0.113281,21.0625 2.761719,20.03125 5.980469,18.773438L11.84375,16.488281 13,16.398438C13.636719,16.355469 14.1875,16.320312 14.226562,16.3125 14.28125,16.3125 14.304688,17.175781 14.332031,19.511719 14.363281,22.710938 14.414062,23.710938 14.664062,25.65625 14.75,26.367188 14.960938,27.511719 15.039062,27.707031 15.0625,27.773438 14.648438,28.074219 13.582031,28.78125 12.761719,29.320312 11.898438,29.894531 11.65625,30.050781 11.117188,30.414062 11,30.617188 11,31.199219 11,31.5 11.023438,31.625 11.082031,31.625 11.125,31.625 12.074219,31.375 13.1875,31.0625 14.304688,30.757812 15.261719,30.5 15.3125,30.5 15.382812,30.5 15.445312,30.675781 15.550781,31.113281 15.699219,31.773438 15.820312,32 16,32 16.179688,32 16.300781,31.773438 16.449219,31.113281 16.554688,30.675781 16.617188,30.5 16.6875,30.5 16.738281,30.5 17.695312,30.757812 18.8125,31.0625 19.925781,31.375 20.875,31.625 20.917969,31.625 21.042969,31.625 21.023438,30.832031 20.886719,30.5625 20.773438,30.324219 20.832031,30.367188 18.417969,28.78125 17.335938,28.070312 16.9375,27.773438 16.960938,27.707031 17.042969,27.507812 17.25,26.367188 17.335938,25.65625 17.601562,23.554688 17.6875,21.886719 17.6875,18.855469 17.6875,16.863281 17.707031,16.3125 17.769531,16.3125 17.804688,16.320312 18.363281,16.355469 19,16.398438L20.15625,16.488281 26.019531,18.773438C29.238281,20.03125 31.886719,21.0625 31.90625,21.0625 31.925781,21.0625 31.9375,20.960938 31.9375,20.84375 31.9375,20.667969 31.855469,20.511719 31.582031,20.136719 31.386719,19.875 31.164062,19.570312 31.085938,19.460938 30.992188,19.335938 29.304688,18.242188 26.101562,16.242188 21.074219,13.105469 21.019531,13.070312 21.394531,12.90625 21.523438,12.84375 21.53125,12.820312 21.53125,11.867188 21.53125,10.554688 21.53125,10.5625 20.695312,10.5625 20.199219,10.5625 20.0625,10.582031 19.992188,10.667969 19.929688,10.738281 19.898438,11.007812 19.886719,11.542969 19.875,11.960938 19.855469,12.3125 19.84375,12.3125 19.789062,12.3125 18.125,11.273438 17.863281,11.074219L17.5625,10.851562 17.5625,8.03125C17.5625,4.28125 17.476562,3.175781 17.09375,1.855469 16.820312,0.898438 16.289062,0 16,0 15.9375,0 15.789062,0.113281 15.667969,0.25z"/></svg>
