<svg viewBox="0 0 32 32" xmlns="http://www.w3.org/2000/svg"><path d="M15.667969,0.417969C15.304688,0.96875 15.179688,1.226562 14.945312,1.894531 14.488281,3.1875 14.480469,3.242188 14.445312,7.480469 14.40625,11.175781 14.398438,11.304688 14.28125,11.46875 14.210938,11.5625 13.707031,11.925781 13.15625,12.273438L12.15625,12.917969 12.136719,12.367188C12.117188,11.863281 12.105469,11.804688 11.957031,11.6875 11.695312,11.480469 11.023438,11.53125 10.863281,11.773438 10.835938,11.8125 10.8125,12.28125 10.8125,12.8125L10.8125,13.78125 8.898438,15C7.851562,15.667969 6.960938,16.226562 6.929688,16.238281 6.898438,16.25 6.875,15.957031 6.875,15.542969 6.875,14.761719 6.835938,14.664062 6.523438,14.585938 6.28125,14.523438 5.8125,14.601562 5.695312,14.710938 5.613281,14.800781 5.585938,15.011719 5.5625,15.980469L5.53125,17.148438 3.5,18.445312 1.46875,19.738281 1.050781,20.386719C0.707031,20.917969,0.632812,21.074219,0.632812,21.300781L0.625,21.5625 1,21.375C1.386719,21.179688 5.90625,19.375 6.007812,19.375 6.039062,19.375 6.0625,19.414062 6.0625,19.460938 6.0625,19.507812 6.101562,19.582031 6.148438,19.617188 6.226562,19.679688 6.257812,19.667969 6.304688,19.570312 6.34375,19.5 6.375,19.394531 6.375,19.324219 6.375,19.238281 6.460938,19.167969 6.707031,19.074219 6.882812,19.007812 7.074219,18.929688 7.132812,18.90625 7.210938,18.875 7.242188,18.917969 7.273438,19.085938 7.324219,19.355469 7.417969,19.382812 7.476562,19.136719 7.550781,18.761719 7.605469,18.710938 8.132812,18.507812 8.417969,18.394531 8.6875,18.289062 8.726562,18.273438 8.761719,18.257812 8.820312,18.332031 8.851562,18.4375 8.929688,18.71875 9.011719,18.699219 9.09375,18.375L9.164062,18.09375 9.8125,17.835938 10.46875,17.582031 10.53125,17.792969C10.617188,18.085938,10.707031,18.0625,10.773438,17.726562L10.832031,17.445312 11.386719,17.21875C11.6875,17.101562 11.976562,17 12.019531,17 12.0625,17 12.125,17.117188 12.164062,17.261719 12.238281,17.625 12.386719,17.617188 12.476562,17.25 12.554688,16.917969 12.574219,16.914062 13.6875,16.84375L14.425781,16.800781 14.457031,19.726562C14.480469,22.71875 14.539062,23.675781 14.8125,25.90625 14.882812,26.457031 14.988281,27.144531 15.042969,27.425781 15.113281,27.773438 15.125,27.960938 15.082031,27.988281 14.34375,28.457031 11.523438,30.4375 11.460938,30.53125 11.355469,30.699219 11.1875,31.351562 11.1875,31.613281 11.1875,31.78125 11.207031,31.8125 11.300781,31.789062 11.355469,31.769531 11.585938,31.710938 11.8125,31.65625 12.039062,31.601562 12.945312,31.332031 13.824219,31.054688 14.710938,30.789062 15.457031,30.5625 15.488281,30.5625 15.511719,30.5625 15.570312,30.738281 15.613281,30.957031 15.71875,31.511719 15.800781,31.769531 15.90625,31.90625 16,32.03125 16,32.03125 16.09375,31.90625 16.199219,31.769531 16.28125,31.511719 16.386719,30.949219 16.429688,30.738281 16.488281,30.5625 16.519531,30.5625 16.542969,30.5625 17.164062,30.75 17.894531,30.976562 18.988281,31.3125 20.710938,31.8125 20.792969,31.8125 20.898438,31.8125 20.695312,30.769531 20.539062,30.53125 20.476562,30.4375 17.65625,28.457031 16.917969,27.988281 16.875,27.960938 16.886719,27.773438 16.957031,27.425781 17.011719,27.144531 17.117188,26.457031 17.1875,25.90625 17.460938,23.675781 17.519531,22.71875 17.542969,19.726562L17.574219,16.792969 18.238281,16.835938C19.398438,16.914062 19.417969,16.914062 19.460938,17.175781 19.480469,17.304688 19.53125,17.449219 19.5625,17.5 19.617188,17.582031 19.636719,17.574219 19.71875,17.476562 19.769531,17.40625 19.8125,17.292969 19.8125,17.226562 19.8125,16.945312 19.886719,16.9375 20.5,17.175781L21.09375,17.414062 21.167969,17.710938C21.210938,17.882812 21.261719,18.03125 21.28125,18.050781 21.34375,18.113281 21.4375,17.917969 21.4375,17.726562 21.4375,17.582031 21.457031,17.554688 21.550781,17.59375 21.605469,17.617188 21.914062,17.738281 22.230469,17.855469 22.761719,18.0625 22.804688,18.09375 22.84375,18.273438 22.867188,18.382812 22.898438,18.523438 22.917969,18.585938 22.949219,18.707031 22.957031,18.707031 23.039062,18.59375 23.085938,18.53125 23.125,18.425781 23.125,18.363281 23.125,18.210938 23.136719,18.210938 23.820312,18.488281L24.40625,18.726562 24.449219,19C24.476562,19.144531 24.511719,19.28125 24.53125,19.304688 24.585938,19.355469 24.6875,19.175781 24.6875,19.011719 24.6875,18.835938 24.707031,18.84375 25.15625,19.023438 25.480469,19.15625 25.53125,19.199219 25.59375,19.414062 25.675781,19.707031 25.792969,19.75 25.882812,19.511719L25.945312,19.332031 28.332031,20.28125C29.644531,20.800781,30.867188,21.304688,31.050781,21.394531L31.375,21.5625 31.367188,21.300781C31.367188,21.074219,31.292969,20.917969,30.949219,20.386719L30.53125,19.738281 28.5,18.445312 26.46875,17.148438 26.429688,15.96875C26.414062,15.3125 26.394531,14.773438 26.386719,14.769531 26.382812,14.761719 26.289062,14.707031 26.175781,14.648438 25.925781,14.519531 25.355469,14.554688 25.199219,14.710938 25.117188,14.792969 25.085938,14.96875 25.0625,15.523438L25.03125,16.230469 23.113281,15.007812 21.1875,13.78125 21.1875,11.820312 21.023438,11.695312C20.757812,11.480469 20.085938,11.53125 19.925781,11.773438 19.898438,11.8125 19.875,12.082031 19.875,12.367188 19.875,12.8125 19.863281,12.882812 19.773438,12.851562 19.507812,12.75 17.792969,11.585938 17.699219,11.449219 17.605469,11.300781 17.585938,10.917969 17.554688,7.46875 17.523438,3.863281 17.511719,3.625 17.382812,3.050781 17.238281,2.398438 16.945312,1.507812 16.738281,1.09375 16.554688,0.730469 16.0625,0 16,0 15.96875,0 15.820312,0.1875 15.667969,0.417969z"/></svg>
