<svg viewBox="0 0 32 32" xmlns="http://www.w3.org/2000/svg"><path d="M15.648438,0.230469C15.21875,0.65625 14.851562,1.71875 14.65625,3.0625 14.5625,3.730469 14.445312,5.917969 14.417969,7.5625L14.40625,8.460938 11.09375,11.25 11.0625,10.4375C11.039062,9.804688 11.011719,9.605469 10.9375,9.5625 10.800781,9.476562 9.789062,9.488281 9.699219,9.574219 9.644531,9.632812 9.625,10.050781 9.625,11.070312L9.625,12.480469 8.175781,13.699219 6.71875,14.925781 6.699219,14.117188C6.679688,13.3125 6.679688,13.304688 6.523438,13.25 6.320312,13.167969 5.617188,13.167969 5.414062,13.25L5.25,13.3125 5.25,16.15625 3.011719,18.039062C1.789062,19.070312 0.71875,20.007812 0.636719,20.125 0.386719,20.492188 0.300781,20.917969 0.269531,21.8125L0.242188,22.65625 0.425781,22.457031C0.5625,22.292969 1.132812,22.019531 3.125,21.132812 4.519531,20.511719 5.695312,20 5.742188,19.988281 5.792969,19.976562 5.851562,20.050781 5.886719,20.167969 5.957031,20.417969 6.105469,20.4375 6.164062,20.199219 6.261719,19.742188 6.269531,19.730469 6.882812,19.457031 7.207031,19.3125 7.488281,19.195312 7.519531,19.195312 7.542969,19.1875 7.5625,19.242188 7.5625,19.304688 7.5625,19.695312 7.78125,19.730469 7.875,19.355469 7.914062,19.210938 7.949219,19.0625 7.960938,19.03125 7.980469,18.980469 8.699219,18.636719 9.15625,18.460938 9.199219,18.445312 9.261719,18.539062 9.304688,18.6875 9.414062,19.050781 9.542969,19.007812 9.625,18.574219L9.699219,18.207031 11.988281,17.195312C13.25,16.632812 14.3125,16.164062 14.355469,16.144531 14.40625,16.125 14.429688,17.039062 14.457031,19.792969 14.488281,23.664062 14.523438,24.257812 14.804688,25.269531L14.925781,25.695312 12.945312,27.332031C11.855469,28.226562 10.929688,29.007812 10.886719,29.0625 10.414062,29.617188 10.050781,30.476562 9.960938,31.238281 9.894531,31.851562 9.851562,31.855469 12.800781,30.730469 15.230469,29.804688 15.34375,29.769531 15.386719,29.898438 15.40625,29.96875 15.5,30.382812 15.59375,30.8125 15.929688,32.386719 16.070312,32.386719 16.40625,30.8125 16.5,30.382812 16.59375,29.96875 16.613281,29.898438 16.65625,29.769531 16.769531,29.804688 19.199219,30.730469 22.148438,31.855469 22.105469,31.851562 22.039062,31.238281 21.949219,30.476562 21.585938,29.617188 21.113281,29.0625 21.070312,29.007812 20.144531,28.226562 19.054688,27.332031L17.074219,25.695312 17.195312,25.269531C17.476562,24.257812 17.511719,23.664062 17.542969,19.792969 17.570312,17.039062 17.59375,16.125 17.644531,16.144531 17.6875,16.164062 18.75,16.632812 20.011719,17.195312L22.300781,18.207031 22.375,18.574219C22.457031,19.007812 22.585938,19.050781 22.695312,18.6875 22.738281,18.539062 22.800781,18.445312 22.84375,18.460938 23.300781,18.636719 24.019531,18.980469 24.039062,19.03125 24.050781,19.0625 24.085938,19.210938 24.125,19.355469 24.21875,19.730469 24.4375,19.695312 24.4375,19.304688 24.4375,19.242188 24.457031,19.1875 24.488281,19.195312 24.511719,19.195312 24.792969,19.3125 25.117188,19.457031 25.730469,19.730469 25.738281,19.742188 25.835938,20.199219 25.894531,20.4375 26.042969,20.417969 26.113281,20.167969 26.148438,20.050781 26.207031,19.976562 26.257812,19.988281 26.304688,20 27.480469,20.511719 28.875,21.132812 30.867188,22.019531 31.4375,22.292969 31.574219,22.457031L31.757812,22.65625 31.730469,21.8125C31.699219,20.945312 31.617188,20.53125 31.382812,20.144531 31.3125,20.039062 30.242188,19.09375 29.007812,18.050781L26.75,16.15625 26.75,14.738281C26.75,13.398438 26.742188,13.3125 26.632812,13.25 26.476562,13.167969 25.6875,13.167969 25.476562,13.25 25.320312,13.304688 25.320312,13.3125 25.300781,14.117188L25.28125,14.925781 23.832031,13.699219 22.375,12.480469 22.375,11.070312C22.375,10.050781 22.355469,9.632812 22.300781,9.574219 22.210938,9.488281 21.199219,9.476562 21.0625,9.5625 20.988281,9.605469 20.960938,9.804688 20.9375,10.4375L20.90625,11.25 17.59375,8.460938 17.582031,7.5625C17.554688,5.917969 17.4375,3.730469 17.34375,3.0625 17.21875,2.199219 16.980469,1.3125 16.742188,0.824219 16.523438,0.382812 16.179688,0 16,0 15.929688,0 15.773438,0.101562 15.648438,0.230469z"/></svg>
