<svg viewBox="0 0 32 32" xmlns="http://www.w3.org/2000/svg"><path d="M15.13,0.31L15.17,0.31L15.21,1.14L15.48,0.79L15.69,0.61L15.96,0.61L16.31,0.92L16.48,1.18L16.74,1.57L16.87,1.84L17.18,2.45L17.44,3.1L17.62,3.58L17.79,4.85L17.84,8.92L18.1,9.31L18.27,9.62L18.49,10.19L19.93,10.67L20.11,10.67L20.15,10.4L20.15,9.27L20.28,8.74L19.72,8.74L18.97,8.66L19.06,8.57L20.28,8.48L20.37,8.04L20.5,7.91L20.72,7.91L20.94,8.13L20.94,8.52L21.68,8.52L22.16,8.61L21.99,8.7L21.03,8.79L20.98,8.96L21.11,9.36L21.16,9.66L21.16,10.1L21.11,10.45L21.11,10.97L21.25,11.1L22.99,11.67L24.17,12.07L24.26,12.07L24.22,10.8L24.31,10.14L24.39,9.88L23.26,9.79L23.21,9.7L23.34,9.66L24.39,9.66L24.39,9.36L24.57,9.01L24.87,9.01L25.05,9.27L25.05,9.62L25.66,9.62L26.32,9.66L26.36,9.75L25.14,9.88L25.09,10.01L25.18,10.36L25.22,10.62L25.22,11.67L25.14,12.24L25.22,12.42L27.41,13.16L29.38,13.81L30.25,14.12L30.47,14.3L30.51,14.43L30.51,15.96L30.12,15.96L27.37,15.74L24.61,15.52L23.52,15.43L23.48,15.56L23.43,15.43L21.64,15.3L21.55,15.43L21.55,15.26L18.97,15.08L18.93,15.17L18.89,15.08L18.58,15.04L18.54,15.83L18.4,16.13L17.97,16.57L17.84,16.66L17.79,20.15L17.66,21.81L17.31,24L17.05,25.4L16.87,26.32L16.87,26.54L17.44,26.97L18.23,27.54L19.06,28.15L19.85,28.72L20.68,29.33L21.2,29.73L21.55,29.99L21.77,30.21L22.16,30.69L22.34,31.48L22.34,31.74L22.3,31.83L21.9,31.74L21.11,31.43L19.93,30.99L18.27,30.38L16.74,29.81L16.31,29.64L16.09,29.6L16,29.99L15.87,30.34L15.78,30.34L15.56,29.73L15.56,29.6L15.13,29.73L13.25,30.43L12.2,30.82L10.05,31.61L9.49,31.83L9.36,31.83L9.31,31.74L9.36,31.21L9.49,30.69L9.88,30.21L10.32,29.81L10.93,29.38L11.5,28.94L12.28,28.37L13.11,27.76L13.9,27.19L14.6,26.67L14.78,26.54L14.73,26.1L14.47,24.74L14.08,22.43L13.95,21.38L13.86,20.15L13.81,16.66L13.38,16.26L13.16,16L13.11,15.83L13.07,15.04L12.77,15.08L12.68,15.17L12.68,15.08L10.1,15.26L10.05,15.43L10.01,15.3L8.22,15.43L8.13,15.56L8.13,15.43L5.29,15.65L3.19,15.83L1.53,15.96L1.14,15.96L1.14,14.43L1.27,14.21L1.62,14.03L3.19,13.51L4.98,12.9L6.43,12.42L6.51,12.24L6.43,11.67L6.43,10.62L6.51,10.1L6.56,9.92L6.51,9.88L5.29,9.75L5.33,9.66L6.34,9.62L6.6,9.62L6.6,9.27L6.78,9.01L7.08,9.01L7.21,9.18L7.26,9.36L7.26,9.66L8.31,9.66L8.44,9.75L8.39,9.79L7.26,9.88L7.39,10.32L7.43,10.8L7.39,12.07L7.91,11.93L9.57,11.37L10.49,11.06L10.54,10.89L10.54,10.45L10.49,10.1L10.49,9.66L10.62,9.01L10.67,8.83L10.62,8.79L9.66,8.7L9.49,8.61L9.97,8.52L10.71,8.52L10.71,8.13L10.93,7.91L11.15,7.91L11.32,8.13L11.37,8.48L12.59,8.57L12.68,8.66L11.93,8.74L11.37,8.74L11.5,9.27L11.5,10.49L11.54,10.67L11.85,10.62L13.16,10.19L13.42,9.49L13.68,9.09L13.81,8.92L13.86,4.85L14.03,3.58L14.34,2.75L14.73,1.88L14.86,1.7L15.04,1.36Z"/></svg>
