<?xml version="1.0" encoding="UTF-8"?>
<svg enable-background="new 0 0 732 732" version="1.1" viewBox="0 0 732 732" xml:space="preserve" xmlns="http://www.w3.org/2000/svg">
<path d="m492 733h-491v-732h732v732h-241m-135.92-713.93s0.008667 0.088081-0.62109 0.19272c-1.0428 1.2747-2.0857 2.5495-3.5512 4.3936-1.2156 1.084-1.3087 4.0619-3.9235 1.5144v-16.91c-0.63535 0.002437-1.2707 0.004874-1.906 0.00731 0 5.9243 0 11.849-0.16092 18.59-0.37866 2.2457-0.28244 4.7167-1.2217 6.6964-3.327 7.0126-6.8856 13.924-10.577 20.754-11.3 20.907-15.604 43.502-15.864 66.953-0.29205 26.293-0.04364 52.591-0.23618 78.885-0.017578 2.4031-1.2797 4.9192-2.3951 7.169-3.2074 6.4696-6.636 12.83-10.478 19.577-0.13544 0.7561-0.27087 1.5122-0.69138 2.8557-0.052124 0.43104-0.10422 0.86209-0.61728 1.6987-0.18143 0.54634-0.36285 1.0927-0.82361 2.2184-0.2905 0.31164-0.58099 0.62329-1.6099 0.81865-6.6635 2.313-13.327 4.626-20.598 7.072-0.57602 0.23146-1.1521 0.46292-2.4868 0.57426-2.9589 1.1254-5.9178 2.2508-9.5699 3.5333-0.92374 0.20494-1.8475 0.40987-3.3584 0.030823-0.54401-2.3204-1.5246-4.6366-1.5475-6.9621-0.060303-6.1372 0.80334-12.318 0.32874-18.406-0.40192-5.1553-2.1607-10.205-3.3314-16.075-0.046418-0.77165-0.092804-1.5433 0.67615-2.616 2.1454-0.28862 4.2909-0.57726 7.2604-0.78522 1.3727-0.073471 2.7454-0.14696 4.8032-0.052597 2.1212-0.35806 4.2425-0.71612 7.0988-1.1128 0.71832-0.15511 1.4366-0.31021 2.8845-0.10086 1.8262-0.095261 3.6524-0.19051 5.4787-0.28577 0.007141-0.44151 0.014282-0.88304 0.021454-1.3246-2.0549-0.21788-4.1098-0.43576-6.9964-0.81169-1.6947-0.023575-3.3894-0.047135-5.6081-0.48436-0.86548-0.061783-1.731-0.12357-3.4299-0.42418-2.3078 0.044647-4.6156 0.08931-7.7302-0.096573-3.4807 0.83139-4.7013-1.3867-5.4786-4.9008-0.077178-1.0489-0.15439-2.0978-0.084472-3.8277-1.6104-1.7087-3.2207-3.4173-5.5318-5.2542-0.70927 0.024765-1.4185 0.049515-2.7825-0.10878-1.1041 0.99094-2.2081 1.9819-3.6018 3.1977 0 0-0.094254 0.35436-0.6452 0.63493-0.2428 0.74114-0.48558 1.4823-0.95256 2.8393 0.010818 0.43326 0.021637 0.86652-0.33974 2.0155 0.6048 4.691-1.5628 5.6932-6.0179 5.6301-7.2812-0.10321-14.575 0.71933-21.864 1.1513 0.001358 0.52284 0.002716 1.0457 0.004074 1.5685 5.0318 0.51875 10.064 1.0375 15.952 1.6987 2.0262-0.009079 4.0524-0.018173 6.738 0.3387 4.0197 0.41194 5.9194 1.995 3.6411 6.1929-0.60464 1.1141-0.72768 2.4896-1.2399 4.3789 0.021362 0.43611 0.04271 0.87221-0.28471 1.7741-0.035263 0.55913-0.070541 1.1183-0.45947 2.2383-0.049439 0.43463-0.098877 0.86926-0.5156 1.8438 0.038498 0.86162 0.076981 1.7232-0.13925 3.4581 0.009002 4.1417-0.081223 8.2865 0.051193 12.424 0.18007 5.6264 0.90736 11.268 0.59798 16.859-0.10489 1.8953-2.2904 4.695-4.1249 5.3197-21.958 7.4767-44.029 14.622-66.783 21.812-0.77911-0.48874-1.5582-0.97748-2.304-2.2587 0.23863-2.0689 0.47726-4.1378 1.0714-6.8776-0.008652-2.7809-0.017304-5.5618 0.13107-9.1332 0.011993-3.0022 0.023986-6.0045 0.40022-9.8776-1.3205-6.7535-2.6409-13.507-3.9384-20.958 0.37209-0.52112 0.74417-1.0422 1.9314-1.3788 2.0783-0.38684 4.1566-0.77368 7.0187-1.1422 1.0411-0.068893 2.0822-0.13779 3.8669 0.022598 1.446-0.36748 2.892-0.73495 4.9812-1.0711 0.64011-0.058578 1.2802-0.11716 2.5876 0.1114 3.2276-0.4157 6.4552-0.83138 9.6828-1.2471-0.04538-0.48503-0.09076-0.97008-0.13612-1.4551-2.7615 0-5.5229 0-9.3414-0.049561-0.35162 0.028229-0.70323 0.056458-1.6648-0.3403-6.2783-0.20546-12.557-0.41092-18.802-0.6976 0 0-0.087342 0.005814-0.053025-0.88077-0.84636-3.6113-1.1171-7.4998-2.6883-10.762-1.8638-3.8695-5.7755-3.7451-9.1549-0.42189 0 0 0.055847 0.094055-0.64218 0.2655-0.85104 2.7824-2.1112 5.5179-2.4374 8.3605-0.32236 2.8088-1.3904 3.6353-4.0668 3.6745-4.9585 0.072571-9.9121 0.47772-15.716 0.69154-1.697 0.056824-3.394 0.11365-5.8399-0.042297-1.6058 0.32256-3.2117 0.64513-4.8176 0.96768 0.039329 0.41962 0.078666 0.83925 0.118 1.2589 1.8639 0 3.7279 0 6.412 0.23326 2.0004 0.097549 4.0008 0.19508 6.6127 0.7747 5.4603 0.57869 10.921 1.1574 16.685 2.517-0.049133 1.0994-0.098282 2.1988-0.71361 3.616-0.046447 0.60416-0.09291 1.2083-0.29971 2.4321 0.013931 0.42509 0.027863 0.85017-0.43439 1.8551-0.55043 3.819-1.1009 7.6381-1.7766 12.327-0.003616 2.3512-0.007248 4.7023-0.29765 7.5717 0.088165 1.1516 0.17632 2.3031 0.2346 4.3004 0.084778 1.6873 0.16956 3.3747 0.034088 5.9078 0.75891 3.3992 1.5178 6.7984 2.2465 10.84 0.079559 0.41852 0.15912 0.83704-0.033844 2.0758 0.12099 0.84354 0.24197 1.687 0.15123 3.1269-0.054794 0.41806-0.10959 0.83612-0.65639 1.6092-0.26534 0.5347-0.53067 1.0694-1.4486 1.8744-1.7435 0.68344-3.4871 1.3669-5.9608 1.9036-2.4503 1.0019-4.9006 2.0038-8.0724 3.0843-2.0627 0.69897-4.1254 1.3979-6.9192 1.9659-2.4506 1.0019-4.9012 2.0037-8.031 3.0705-1.0759 0.36716-2.1518 0.73431-3.976 1.0251-3.4469 1.3127-6.8938 2.6255-11.02 4.0045-1.0745 0.37036-2.1489 0.74072-3.9695 1.0215-3.4492 1.3125-6.8984 2.625-11.025 4.0168-1.0738 0.36938-2.1475 0.73874-3.967 1.0291-3.4518 1.2977-6.9035 2.5954-11.032 3.9824-1.0729 0.37186-2.1457 0.74368-3.9645 1.048-3.4531 1.2864-6.9062 2.5729-11.034 3.961-1.0742 0.36484-2.1484 0.72964-3.9571 1.0361-2.4556 0.95749-4.9112 1.9149-8.1099 2.9402-4.6641 1.7263-9.375 3.3379-13.978 5.2133-4.1065 1.673-6.0614 4.8483-6.0561 9.3763 0.008924 7.6601-0.18704 15.32-0.27307 22.981-0.034382 3.0612-0.005654 6.1231-0.005654 9.2278 2.8229-0.22806 4.8064-0.39746 6.7913-0.54718 17.766-1.34 35.534-2.6394 53.297-4.024 19.536-1.5229 39.061-3.1802 58.599-4.6708 14.08-1.0741 28.182-1.8602 42.257-2.9801 13.065-1.0394 26.103-2.4125 39.167-3.4605 1.5444-0.12387 3.179 0.87729 4.0052 1.1261 1.7376-0.73898 3.3764-1.9451 5.1052-2.0919 16.087-1.3664 32.188-2.5764 48.289-3.773 5.2406-0.38947 10.494-0.60596 15.978-0.91486 0.15308 1.288 0.53262 2.4465 0.38318 3.532-1.9581 14.221 3.4221 24.875 15.344 32.619 1.1544 0.74982 1.826 3.0411 1.8412 4.6253 0.19769 20.491 0.36069 40.983 0.28491 61.475-0.11569 31.263 4.0354 62.089 9.3891 92.777 3.6576 20.966 7.7198 41.863 11.789 62.755 0.70331 3.6113-0.031585 6.0594-3.0399 8.1433-4.5077 3.1225-8.8705 6.4548-13.284 9.7131-29.564 21.828-59.276 43.459-88.587 65.621-8.0076 6.0544-15.955 12.948-18.067 23.686-1.245 6.3279-3.2929 12.738-1.4858 19.609 2.3567-0.78491 4.1025-1.3082 5.807-1.9426 43.284-16.111 86.561-32.239 129.85-48.348 5.7025-2.1223 5.8404-1.9016 7.4694 3.7748 1.1503 4.0079 2.7719 7.8806 4.7244 13.322 2.6188-6.9484 4.7374-12.569 7.1575-18.991 46.931 17.426 93.701 34.793 141.58 52.572-0.27869-10.819 0.36713-21.438-6.4279-29.189-8.0243-9.1526-17.371-17.395-27.116-24.743-29.081-21.928-58.611-43.263-88.046-64.718-3.273-2.3856-4.2487-4.8467-3.4869-8.8854 4.4677-23.686 9.123-47.353 12.822-71.165 3.2151-20.699 6.4197-41.52 7.5102-62.398 1.4237-27.258 0.8096-54.626 0.92465-81.947 0.013062-3.1037 0.7305-5.1282 3.4116-6.9969 9.7573-6.8008 15.651-15.649 13.943-28.25-0.29498-2.1762 0.1864-4.4577 0.31296-6.7602 11 0.76645 21.386 1.4577 31.766 2.2221 10.96 0.8071 21.923 1.6002 32.864 2.6204 1.6478 0.15366 3.1835 1.5099 3.8823 1.862 2.1638-0.35501 4.0004-1.0073 5.7878-0.89264 11.623 0.7457 23.243 1.577 34.842 2.6145 1.5159 0.13556 2.912 1.6107 3.2551 1.8128 2.1977-0.46307 3.8185-1.198 5.3681-1.0703 15.388 1.2683 30.751 2.8548 46.147 4.0146 36.337 2.7375 72.688 5.291 109.12 7.9248 0-11.403 0.29401-23.02-0.2525-34.597-0.10699-2.2676-3.0553-5.1987-5.4168-6.3936-4.6907-2.3734-9.8853-3.7511-15.358-6.0683-2.543-0.76331-5.086-1.5266-8.2376-2.5944-1.0916-0.29547-2.1831-0.59091-3.7639-1.4204-3.5433-1.0877-7.0866-2.1755-11.239-3.5683-1.0905-0.30005-2.181-0.60007-3.7644-1.4295-3.5408-1.0946-7.0817-2.1892-11.239-3.5723-1.0895-0.29813-2.1789-0.59622-3.7722-1.4114-3.5341-1.1115-7.0682-2.223-11.229-3.6024-1.088-0.302-2.1759-0.604-3.7836-1.4041-3.5269-1.1222-7.0538-2.2444-11.216-3.6121-1.0866-0.30734-2.1733-0.61466-3.7838-1.4041-2.5233-0.79587-5.0464-1.5917-8.2568-2.6287-2.0713-0.64416-4.1425-1.2884-6.7528-2.3948-2.5168-0.79886-5.0336-1.5977-8.2288-2.6083-1.733-0.70438-3.4661-1.4088-5.3183-2.706-0.38745-0.45184-0.7749-0.90369-1.2241-1.9947-0.1062-0.41272-0.21234-0.82541-0.003845-2.0396-0.074402-0.84613-0.1488-1.6923-0.028565-3.1461 0.003662-0.4245 0.007325-0.849 0.51892-1.8362 0.51648-3.4969 1.033-6.9939 1.6855-11.324 0.029541-1.6901 0.059143-3.3802 0.41229-5.567-0.1156-1.1585-0.23126-2.317-0.28247-4.3573-0.066712-2.3505-0.13336-4.7009 0.001892-7.9275-0.77594-3.7148-1.5519-7.4296-2.2527-11.789-0.065673-0.42499-0.13135-0.84998 0.069458-1.8632-0.32226-0.50821-0.64453-1.0164-1.0991-2.3509 0.094666-1.0846 0.18933-2.1693 1.1951-3.3524 5.3561-0.7085 10.712-1.417 16.937-2.1161 1.9966-0.18001 3.9932-0.36 6.715-0.26758 1.6318-0.17169 3.2636-0.34338 4.8954-0.51508-0.007141-0.4519-0.014282-0.90379-0.021423-1.3557-1.8275-0.13536-3.6549-0.27072-6.3238-0.52017-1.6985-9.61e-4 -3.3971-0.001923-5.8314-0.35675-4.6356-0.14851-9.2732-0.44958-13.906-0.39003-2.9158 0.037475-3.9361-0.91596-4.3312-3.9251-0.37402-2.8494-2.0145-5.5326-3.0409-8.3831 0 0-0.094177 0.057159-0.22681-0.61253-4.3981-2.8301-7.5919-2.5208-9.506 1.8887-1.4249 3.2824-1.4313 7.1806-2.1575 10.803 0 0 0.026917 0.083847-0.92108 0.18794-6.1697 0.30966-12.339 0.61934-19.572 0.84016-0.35498 0.018265-0.70996 0.036514-1.4219-0.16252-2.6641 0.23283-5.3282 0.46568-7.9924 0.69852-0.00116 0.41791-0.00232 0.8358-0.003479 1.2537 3.4531 0.2238 6.9062 0.4476 10.978 0.7869 0.62866 0.009018 1.2574 0.018036 2.4471 0.53041 1.5104 0.12405 3.0207 0.24812 5.3019 0.50368 1.0421 0.018448 2.0842 0.036911 3.7524 0.53288 2.1436 0.16669 4.2871 0.33337 7.0557 0.81273 0.17566 0.64859 0.35132 1.2972-0.008484 2.4358-1.0231 7.2188-2.0462 14.438-3.2219 22.434 0.10236 2.3372 0.20471 4.6744-0.038818 7.7096 0.23999 3.1019 0.47992 6.2037 0.69672 10.084 0.25824 2.0785 0.51654 4.157 0.25311 6.7259-0.84998 0.33578-1.6999 0.67157-3.2726 0.72318-11.928-3.8168-23.856-7.6337-36.238-12.002-2.9945-0.95166-5.989-1.9033-9.6972-3.0646-1.8706-0.57846-3.7412-1.157-6.161-2.1667-3.0334-0.90781-6.0669-1.8156-9.7664-3.0114-2.5586-1.6128-5.1171-3.2256-7.5417-5.655-0.26883-2.0934-0.53763-4.1868-0.70447-6.9552-0.031922-0.4528-0.063874-0.90559 0.23743-2.0275 0.10788-1.4801 0.21576-2.9603 0.55563-5.2605 0.082703-5.6402 0.1654-11.28 0.45779-17.538-0.15228-0.82645-0.30456-1.6529-0.43616-3.1482-0.1748-0.40495-0.34964-0.80992-0.33859-1.7621-0.2131-0.52589-0.42624-1.0518-0.57666-2.2328-0.056244-0.43147-0.11249-0.86293-0.091156-2.0606-3.0485-7.8115-3.0485-7.8115 4.0051-9.4262 2.0264-0.074311 4.0528-0.14862 6.9463-0.081681 4.7458-0.60522 9.4915-1.2104 14.237-1.8157-3.5218-1.4706-7.0312-2.259-10.583-2.5917-3.3029-0.30934-6.7111-0.54654-9.9659-0.075531-5.1558 0.74612-7.9596-0.70639-7.6056-6.9271-0.097229-0.42566-0.19446-0.85133-0.13654-1.8738-0.47864-0.63554-0.95728-1.2711-1.5323-2.2585 0 0-0.28873-0.22299-0.35404-0.88222-1.3031-0.71025-2.6062-1.4205-4.6129-2.2407-0.70804 0.055405-1.4161 0.11079-2.7917-0.006683-1.3371 1.9962-2.6743 3.9923-4.2007 6.7069 0.03949 0.73874 0.078979 1.4775-0.31381 2.8493 0.077331 4.239-2.8162 4.6701-6.9042 4.536-5.5951 0.35452-11.19 0.70903-17.355 0.83652-1.7959 0.36394-3.5918 0.72787-5.3877 1.0918 0.053222 0.35436 0.10644 0.70872 0.15967 1.0631 2.2503 0 4.5007 0 7.4516 0.21391 0.72476 0.096237 1.4495 0.19247 2.612 0.74123 2.2066 0.15221 4.4131 0.30441 7.4511 0.63676 1.7-0.007385 3.4001-0.01477 5.8 0.3195 1.8561 0.26686 3.7123 0.53372 5.5514 1.5764-0.043122 0.77385-0.086243 1.5477-0.63715 2.8445-0.98459 4.3482-2.5732 8.6635-2.8125 13.052-0.36145 6.6263 0.43982 13.309 0.28729 19.957-0.059479 2.5909-1.366 5.1533-2.8096 7.6393-0.9198-0.22661-1.8396-0.45322-3.2747-1.1588-3.0402-0.9269-6.0803-1.8538-9.686-3.0374-0.58929-0.19022-1.1786-0.38042-2.3123-1.0147-4.0385-1.2514-8.0771-2.5028-12.681-4.009-0.59219-0.17908-1.1844-0.35814-2.2856-0.98656-1.7415-0.46474-3.4829-0.92947-5.7105-1.8136-0.22015-0.36504-0.44031-0.73006-0.55148-1.6945-0.37-0.47566-0.73999-0.95134-1.1478-2.1736-2.2521-5.1192-3.8558-10.668-6.902-15.261-5.1071-7.6993-7.4267-15.499-7.1064-24.942 0.70566-20.8 0.84915-41.667 0.011871-62.457-0.62509-15.522-2.4511-31.088-5.1062-46.398-1.3844-7.9829-5.2292-15.692-8.8359-23.099-4.8297-9.9195-10.506-19.427-15.871-29.728-0.55759-0.5757-1.1152-1.1514-1.9568-2.2892-0.74246-1.0169-1.4849-2.0338-2.2838-3.6812-1.2357-1.0995-2.4715-2.1989-3.6965-3.3865 0 0-0.085144 0.024988-0.25714-0.572-0.87808-0.5122-1.7562-1.0244-2.6631-1.498 0 0 0.038055-0.029176-0.19138-0.75251-2.7996-1.7592-5.5039-2.4896-7.8085 0.75278 0 0-0.025848-0.035289-0.64249 0.049328-0.72986 0.68293-1.4597 1.3659-2.2751 2.0258z" fill="#fff"/>
<path d="m444.59 241.43c0.5893 0.19022 1.1786 0.38042 2.1299 1.0418 3.5211 1.3291 6.6802 2.1872 9.8393 3.0452 0.9198 0.22661 1.8396 0.45322 3.1564 1.0522 1.2195 0.40639 2.7191 0.61461 2.7619 0.44818 0.57465-2.2347 1.0932-4.5057 1.3428-6.7984 1.1367-10.441-2.2047-21.153 1.9442-31.452 0.4043-1.0035-0.37405-2.4834-0.60342-3.7422 0.043091-0.77385 0.086212-1.5477 0.36282-2.9404-2.0059-0.84564-4.2453-1.0724-6.4847-1.2992-1.7 0.007385-3.4001 0.01477-5.6248-0.40913-2.8045-0.50684-5.0844-0.5824-7.3642-0.65797-0.72476-0.096253-1.4495-0.19249-2.6453-0.73851-0.7081-0.86384-0.94516-1.2779-1.1823-1.692 5.5951-0.35451 11.19-0.70902 17.349-0.63425 2.6729 0.70992 4.7816 0.99056 7.6279 1.3694-0.36505-2.9727-0.61038-4.9702-0.85568-6.9677-0.03949-0.73874-0.078979-1.4775 0.30606-2.605 1.7643-2.3076 3.104-4.2264 4.4438-6.1452 0.70804-0.05539 1.4161-0.11078 2.5254 0.21936 1.6931 1.0952 2.985 1.8048 4.2769 2.5144 0 0 0.28873 0.22299 0.23523 0.71188 0.44122 1.1147 0.93594 1.7406 1.4307 2.3664 0.097229 0.42567 0.19446 0.85135-0.024109 1.8809-0.81174 7.4018-0.47482 7.7901 6.1035 7.8194 4.1066 0.018325 8.2132 0.003402 12.967 0.003402-2.4679 1.2296-4.0859 2.0358-5.7039 2.842-2.0264 0.074341-4.0528 0.14865-6.7822-0.09378-6.2665-0.52155-8.1607 0.93794-6.887 4.8811 0.65918 2.0407 2.3064 3.7623 3.5073 5.628 0.056243 0.43146 0.11249 0.86292-0.066864 1.7519 0.051727 1.0792 0.33908 1.7008 0.6264 2.3225 0.1748 0.40495 0.34964 0.80992 0.28876 1.6913-0.003052 1.414 0.22955 2.3515 0.46216 3.289-0.082703 5.6402-0.1654 11.28-0.6799 17.426-0.44022 2.1449-0.44864 3.7846-0.45706 5.4243 0.031921 0.4528 0.063873 0.90559-0.22107 1.9559 0.084564 2.7898 0.48596 4.982 0.88733 7.1743 2.5586 1.6128 5.1172 3.2256 8.0993 5.3224 3.5798 1.3089 6.736 2.1338 9.8922 2.9587 1.8706 0.57846 3.7412 1.157 6.0537 2.1782 3.5312 1.353 6.6204 2.2632 9.7097 3.1734 11.928 3.8168 23.856 7.6337 36.214 11.918 1.4894 0.59274 2.5485 0.71777 3.6077 0.84277-0.081177-0.84134-0.16235-1.6826-0.24353-2.524-0.2583-2.0785-0.5166-4.157-0.51032-6.9274-0.028808-3.8246-0.32208-6.9575-0.61536-10.09-0.10236-2.3372-0.20471-4.6744 0.074951-7.6031 0.88922-5.1148 1.3325-9.6465 1.9274-14.158 0.36145-2.7407 0.9574-5.4505 1.448-8.1741-0.17566-0.64857-0.35132-1.2971-0.95093-2.4386-2.7019-0.59439-4.9799-0.69586-7.2579-0.79735-1.0421-0.018448-2.0842-0.036911-3.6177-0.43362-2.1181-0.46176-3.7448-0.54526-5.3715-0.62875-0.62866-0.009033-1.2574-0.018051-2.5602-0.80054-1.0999-1.0984-1.5256-1.4234-1.9512-1.7484 0.35498-0.01825 0.70996-0.036499 2.0428 0.20404 5.9576 0.30869 10.94 0.46411 15.915 0.33319 1.2216-0.03215 2.4186-0.99907 3.627-1.5363 0 0-0.026917-0.083847 0.39069-0.17218 0.70245-1.151 1.1888-2.2039 1.2404-3.2777 0.41077-8.5507 1.5064-9.5122 10.138-8.656 0 0 0.094177-0.057159 0.053344 0.41031 0.36627 3.395 0.43384 6.4301 1.3132 9.2081 0.49316 1.5581 2.2882 3.779 3.5683 3.8279 5.7103 0.21834 11.446-0.2385 17.173-0.45142 1.6985 9.61e-4 3.3971 0.001923 5.5263 0.3125 0.38513 0.80937 0.33948 1.3091 0.29388 1.8089-1.9966 0.18001-3.9932 0.36-6.7115 0.26944-5.7224 0.072052-10.727 0.36734-15.717 0.82822-0.51624 0.047699-0.94153 1.081-1.4089 1.657-0.094727 1.0846-0.18939 2.1693-0.44263 3.793 0.22461 1.1594 0.60791 1.7798 0.99115 2.4001 0.065674 0.42497 0.13135 0.84996-0.08429 1.8726 0.58984 4.4208 1.461 8.2439 2.3322 12.067 0.06665 2.3505 0.1333 4.7009-0.043946 7.7245-0.095092 1.8424 0.053833 3.0117 0.20282 4.181-0.029541 1.6901-0.059143 3.3802-0.50116 5.585-0.86859 4.134-1.3248 7.7532-1.781 11.372-0.003601 0.4245-0.007264 0.849-0.38007 1.6445-0.21844 1.4395-0.067688 2.508 0.083007 3.5765 0.1062 0.41272 0.21234 0.82541 0.15051 1.7475 0.39172 1.0323 0.95154 1.5552 1.5113 2.0781 1.733 0.70438 3.4661 1.4088 5.6246 2.5439 3.0644 1.1671 5.7034 1.9034 8.3424 2.6398 2.0713 0.6442 4.1425 1.2884 6.634 2.3819 3.067 1.1867 5.7137 1.9241 8.3604 2.6615 1.0866 0.30734 2.1733 0.61465 3.6733 1.3717 4.0499 1.52 7.6863 2.5902 11.323 3.6605 1.088 0.30197 2.1759 0.60397 3.6782 1.3638 4.0489 1.5258 7.6834 2.5937 11.318 3.6617 1.0895 0.29813 2.1789 0.59622 3.681 1.3605 4.0482 1.5226 7.6837 2.579 11.319 3.6355 1.0905 0.30005 2.181 0.60007 3.6862 1.3714 4.0476 1.5245 7.6805 2.5778 11.313 3.631 1.0916 0.29547 2.1831 0.59091 3.6817 1.3526 3.0437 1.1962 5.6804 1.9262 8.3171 2.6562 4.9863 1.7892 10.181 3.1669 14.872 5.5403 2.3615 1.1949 5.3098 4.126 5.4168 6.3936 0.54651 11.577 0.2525 23.194 0.2525 34.597-36.427-2.6338-72.778-5.1873-109.12-7.9248-15.396-1.1598-30.759-2.7464-46.147-4.0146-1.5496-0.12772-3.1704 0.60721-5.3681 1.0703-0.34314-0.20206-1.7393-1.6772-3.2551-1.8128-11.6-1.0375-23.219-1.8688-34.842-2.6145-1.7874-0.11469-3.624 0.53763-5.7878 0.89264-0.69879-0.35211-2.2345-1.7083-3.8823-1.862-10.941-1.0202-21.904-1.8133-32.864-2.6204-10.38-0.7644-20.765-1.4557-31.766-2.2221-0.12656 2.3025-0.60794 4.584-0.31296 6.7602 1.7079 12.601-4.1858 21.449-13.943 28.25-2.6811 1.8687-3.3986 3.8932-3.4116 6.9969-0.11505 27.321 0.49908 54.689-0.92465 81.947-1.0905 20.878-4.2951 41.699-7.5102 62.398-3.6986 23.812-8.354 47.478-12.822 71.165-0.76175 4.0386 0.21393 6.4998 3.4869 8.8854 29.436 21.455 58.965 42.79 88.046 64.718 9.7451 7.3482 19.092 15.591 27.116 24.743 6.795 7.7505 6.1492 18.37 6.4279 29.189-47.878-17.778-94.649-35.145-141.58-52.572-2.4202 6.4213-4.5387 12.042-7.1575 18.991-1.9525-5.4416-3.5741-9.3143-4.7244-13.322-1.6291-5.6763-1.7669-5.8971-7.4694-3.7748-43.284 16.109-86.562 32.237-129.85 48.348-1.7045 0.63446-3.4503 1.1577-5.807 1.9426-1.807-6.8705 0.24083-13.281 1.4858-19.609 2.1126-10.738 10.06-17.631 18.067-23.686 29.311-22.162 59.023-43.793 88.587-65.621 4.4131-3.2584 8.7759-6.5906 13.284-9.7131 3.0083-2.0839 3.7432-4.532 3.0399-8.1433-4.0687-20.891-8.131-41.789-11.789-62.755-5.3537-30.688-9.5048-61.514-9.3891-92.777 0.075775-20.491-0.087219-40.984-0.28491-61.475-0.015289-1.5843-0.68686-3.8755-1.8412-4.6253-11.922-7.744-17.302-18.399-15.344-32.619 0.14944-1.0855-0.2301-2.244-0.38318-3.532-5.4837 0.3089-10.737 0.52539-15.978 0.91486-16.101 1.1966-32.202 2.4066-48.289 3.773-1.7288 0.14685-3.3676 1.3529-5.1052 2.0919-0.82626-0.24884-2.4609-1.25-4.0052-1.1261-13.064 1.048-26.102 2.4211-39.167 3.4605-14.076 1.1199-28.178 1.906-42.257 2.9801-19.538 1.4906-39.064 3.1479-58.599 4.6708-17.762 1.3846-35.531 2.6841-53.297 4.024-1.9849 0.14972-3.9684 0.31912-6.7913 0.54718 0-3.1047-0.028728-6.1667 0.005654-9.2278 0.086036-7.6604 0.282-15.321 0.27307-22.981-0.005276-4.528 1.9496-7.7032 6.0561-9.3763 4.6033-1.8755 9.3142-3.487 14.587-5.0388 3.151-0.9024 5.6935-1.9794 8.2359-3.0565 1.0742-0.36481 2.1484-0.72962 3.8095-0.95014 4.1222-1.2497 7.6575-2.6437 11.193-4.0378 1.0728-0.37186 2.1457-0.74368 3.8075-0.96173 4.1222-1.2498 7.6554-2.6535 11.189-4.0571 1.0738-0.36938 2.1475-0.73874 3.8104-0.94833 4.12-1.2558 7.651-2.6714 11.182-4.0871 1.0745-0.37039 2.1489-0.74075 3.8116-0.94217 4.1187-1.2531 7.6492-2.6751 11.18-4.0971 1.0759-0.36716 2.1518-0.73431 3.8072-0.93182 3.1139-0.92328 5.6482-2.0162 8.1826-3.1092 2.0627-0.69894 4.1254-1.3979 6.7905-1.9383 3.135-0.9263 5.6675-2.0112 8.2001-3.0962 1.7435-0.68344 3.4871-1.3669 5.8396-2.1474 0.84985-0.77545 1.0908-1.4539 1.3317-2.1324 0.054794-0.41806 0.10959-0.83612 0.5224-1.6651 0.15978-1.4527-0.038467-2.4944-0.23671-3.5362-0.079574-0.41852-0.15913-0.83704 0.013474-1.8834-0.38753-4.1541 1.8904-8.3882-2.2784-11.058-0.084763-1.6873-0.16954-3.3747-0.026337-5.7144 0.093384-1.8236-0.041198-2.9949-0.1758-4.1662 0.003616-2.3512 0.007248-4.7023 0.42168-7.6199 0.88789-4.4912 1.365-8.416 1.842-12.341-0.013946-0.42509-0.027878-0.85017 0.30138-1.6138 0.40302-1.0295 0.46286-1.7204 0.5227-2.4114 0.049148-1.0994 0.098297-2.1988-0.056763-4.0831-5.8337-1.2613-11.463-1.7377-17.093-2.2141-2.0004-0.097549-4.0008-0.19508-6.4449-0.66186-0.46909-0.8721-0.49448-1.375-0.51988-1.8778 1.697-0.056824 3.394-0.11365 5.8443 0.095535 5.8727 0.33154 11.02 0.71959 16.096 0.28275 1.711-0.14726 4.0973-2.0905 4.6696-3.7363 1.0544-3.0323 0.99484-6.4521 1.3995-9.7104 1.5e-5 0-0.055832-0.094055 0.42496-0.065246 8.0471-0.79096 9.3966 0.43365 9.805 7.982 0.074478 1.3767 0.99382 2.7076 1.5231 4.0597 0 0 0.087342-0.005814 0.1518 0.42445 6.4922 0.51762 12.92 0.60498 19.348 0.69232 0.35162-0.028228 0.70323-0.056457 0.95531 0.42801-0.32402 0.99243-0.54848 1.4722-0.77295 1.9519-0.64011 0.058578-1.2802 0.11716-2.47-0.086441-2.0915 0.19322-3.6333 0.6486-5.1751 1.104-1.0411 0.068893-2.0822 0.13779-3.7883-0.045975-2.8329 0.23503-5.0009 0.72272-7.1689 1.2104-0.37208 0.52112-0.74417 1.0422-1.3735 2.1624 0.72163 6.1429 1.6729 11.692 2.699 17.227 0.25172 1.3578 0.74832 2.6702 1.1323 4.0034-0.012009 3.0022-0.024002 6.0045-0.39111 9.6801-0.28056 3.4925-0.20601 6.3116-0.13144 9.1307-0.23865 2.0689-0.47728 4.1378-0.96408 6.8182 0.014816 1.3913 0.2778 2.1711 0.54077 2.9508 0.90816-0.42075 1.8163-0.84149 2.7245-1.2623 22.041-7.2316 44.112-14.376 66.07-21.853 1.8346-0.62466 4.02-3.4244 4.1249-5.3197 0.30939-5.5908-0.41791-11.233-0.59798-16.859-0.13242-4.1377-0.042191-8.2825 0.2894-13.021 0.28238-1.5315 0.22415-2.4665 0.16592-3.4016 0.049454-0.43463 0.098892-0.86926 0.56592-1.6462 0.4086-1.0154 0.39964-1.6886 0.39069-2.3617-0.021377-0.43611-0.042725-0.87221 0.35797-1.7058 1.0413-1.5077 1.9761-2.5555 2.2101-3.7417 0.40944-2.0748 0.38847-4.2344 0.54784-6.3585-2.0802-0.14668-4.1603-0.29336-6.2405-0.44005-2.0262 0.009079-4.0524 0.018173-6.6179-0.38206-2.1768-0.91392-3.8143-1.4185-5.4518-1.9231 4.2307-0.64384 8.4422-0.61998 12.653-0.64937 6.4861-0.045273 7.3676-1.279 5.6363-7.7825-0.010818-0.43326-0.021637-0.86652 0.39389-1.6992 0.64328-1.1731 0.86021-1.9468 1.0772-2.7204 0 0 0.094254-0.35436 0.57964-0.44682 1.5806-1.0357 2.6758-1.979 3.7711-2.9222 0.70927-0.02475 1.4185-0.0495 2.5293 0.32349 1.9287 2.111 3.4559 3.8242 4.9832 5.5374 0.077209 1.0489 0.15442 2.0978-0.061493 3.8191-0.29306 2.3461-0.29306 4.0198-0.29306 6.7789 2.9588-0.99896 4.9152-1.6595 6.8715-2.32 2.3078-0.044662 4.6156-0.089325 7.3987 0.26866 1.4763 0.41348 2.4775 0.42433 3.4786 0.4352 1.6947 0.023575 3.3894 0.047135 5.4591 0.38623 0.38058 0.79103 0.3862 1.2665 0.39182 1.742-0.71832 0.1551-1.4366 0.31021-2.7939 0.23813-2.8076 0.23926-4.9763 0.70569-7.1449 1.1721-1.3727 0.073471-2.7454 0.14696-4.8049-0.082886-2.9821 0.018311-5.9698-2.401-7.3889 1.3895 0.046418 0.77165 0.092804 1.5433-0.10641 2.9764-0.20151 2.3009-0.28336 3.9556-0.088379 5.577 0.48032 3.9931 1.3459 7.9553 1.5887 11.958 0.46051 7.5939 0.43741 15.218 0.95288 22.807 0.16531 2.4339 0.65186 2.4008 2.9297 1.0231 0.92374-0.20493 1.8475-0.40985 3.5141-0.54584 3.6905-1.1148 6.6382-2.2985 9.5858-3.4822 0.57602-0.23146 1.1521-0.46292 2.4231-0.61887 7.3437-2.2934 13.992-4.6623 20.641-7.0312 0.2905-0.31164 0.58099-0.62329 1.2755-1.2437 0.56284-0.97757 0.72168-1.6464 0.88055-2.3153 0.052124-0.43104 0.10422-0.86209 0.57324-1.7392 0.53622-1.2154 0.65549-1.9848 0.77475-2.7542 3.3417-6.403 6.7703-12.763 9.9778-19.233 1.1154-2.2498 2.3775-4.7659 2.3951-7.169 0.19254-26.294-0.055878-52.593 0.23618-78.885 0.2605-23.451 4.5638-46.047 15.864-66.953 3.6918-6.83 7.2503-13.741 10.577-20.754 0.93924-1.9797 0.84302-4.4507 1.5867-7.1285 0.74344-0.39626 1.1219-0.36043 1.5003-0.32459 2.8165 1.6166 2.9095-1.3613 4.683-2.7306 1.5796-1.5945 2.6014-2.9037 3.6232-4.213 0-4e-6 -0.008667-0.088085 0.38214-0.044632 1.0942-0.68898 1.7975-1.4214 2.5009-2.1538 0 4e-6 0.025848 0.035293 0.45657 0.046226 2.8229-0.00617 5.2151-0.023273 7.6072-0.040376 0 0-0.038055 0.029176-0.024933 0.35524 0.94937 0.807 1.8857 1.2879 2.8219 1.7689 0 7e-6 0.085144-0.024981 0.072297 0.36995 1.2467 1.4706 2.5062 2.5463 3.7658 3.6219 0.74243 1.0169 1.4849 2.0338 2.3196 3.6703 0.70038 1.175 1.3085 1.7305 1.9167 2.286 5.3127 9.6843 10.989 19.192 15.819 29.111 3.6066 7.4075 7.4514 15.116 8.8359 23.099 2.6552 15.31 4.4811 30.876 5.1062 46.398 0.83728 20.791 0.69379 41.657-0.011871 62.457-0.32034 9.443 1.9993 17.242 7.1064 24.942 3.0462 4.5924 4.6499 10.142 6.7188 15.794 0.28522 1.102 0.7536 1.671 1.222 2.2399 0.22015 0.36504 0.44031 0.73006 1.0394 1.6235 2.1995 0.93045 4.0201 1.3325 5.8406 1.7346 0.59219 0.17908 1.1844 0.35814 2.1396 1.008 4.5294 1.6413 8.6957 2.8118 12.862 3.9823z" fill="#020202"/>
<path d="m265.69 245.99c-1.9843 1.6697-2.4709 1.7028-2.6362-0.73111-0.51547-7.5888-0.49237-15.213-0.95288-22.807-0.24277-4.003-1.1083-7.9652-1.5887-11.958-0.19498-1.6214-0.11313-3.276 0.094543-5.1901 1.4102 4.8218 3.1689 9.8712 3.5709 15.027 0.47461 6.0879-0.38904 12.269-0.32874 18.406 0.022857 2.3256 1.0034 4.6417 1.841 7.2541z" fill="#404040"/>
<path d="m464.9 205.29c0.48328 0.99731 1.2616 2.4773 0.85733 3.4808-4.1489 10.298-0.8075 21.011-1.9442 31.452-0.24963 2.2927-0.76816 4.5637-1.3428 6.7984-0.042847 0.16643-1.5425-0.041794-2.4093-0.40352 0.69397-2.9031 2.0005-5.4654 2.0599-8.0563 0.15253-6.6482-0.64874-13.331-0.28729-19.957 0.23935-4.3889 1.8279-8.7041 3.0664-13.314z" fill="#3D3D3D"/>
<path d="m493.34 200.74c1.1845-0.87683 2.8025-1.683 5.2704-2.9126-4.7534 0-8.86 0.014923-12.967-0.003402-6.5783-0.029374-6.9153-0.4176-6.1525-7.4931 0.010773 5.2906 2.8146 6.7431 7.9704 5.997 3.2548-0.47101 6.663-0.23381 9.9659 0.075531 3.5521 0.33269 7.0615 1.1211 10.583 2.5917-4.7458 0.60521-9.4915 1.2104-14.671 1.745z" fill="#414141"/>
<path d="m246.07 190.4c1.9175 6.1457 1.0359 7.3794-5.4502 7.4247-4.2111 0.029388-8.4227 0.005523-12.653 0.64937 1.6375 0.50459 3.275 1.0092 5.0236 1.8519-4.9207-0.18063-9.9525-0.6994-14.984-1.2182-0.001358-0.52284-0.002716-1.0457-0.004074-1.5685 7.2888-0.43201 14.583-1.2545 21.864-1.1513 4.4551 0.063141 6.6227-0.9391 6.204-5.9879z" fill="#404040"/>
<path d="m592.62 221.9c-5.3589 0.38986-11.095 0.8467-16.805 0.62836-1.2801-0.048935-3.0751-2.2698-3.5683-3.8279-0.87933-2.778-0.9469-5.8131-1.3417-9.161 1.0958 2.3359 2.7362 5.0191 3.1102 7.8685 0.39508 3.0091 1.4154 3.9626 4.3312 3.9251 4.6329-0.059555 9.2705 0.24152 14.274 0.56696z" fill="#494949"/>
<path d="m154.73 209.21c-0.055634 3.1726 0.003967 6.5923-1.0505 9.6247-0.57231 1.6459-2.9585 3.5891-4.6696 3.7363-5.0762 0.43684-10.223 0.048797-15.672-0.25633 4.6266-0.50624 9.5803-0.91139 14.539-0.98396 2.6765-0.039169 3.7444-0.86572 4.0668-3.6745 0.32623-2.8426 1.5864-5.5781 2.7864-8.4462z" fill="#4B4B4B"/>
<path d="m558.97 229.28c-0.2229 2.4786-0.81885 5.1884-1.1803 7.9291-0.59491 4.5117-1.0381 9.0433-1.8511 13.769 0.71741-7.0159 1.7405-14.235 3.0314-21.698z" fill="#494949"/>
<path d="m166.85 220.65c-0.54649-0.90877-1.4658-2.2397-1.5403-3.6164-0.40836-7.5483-1.7579-8.7729-9.758-7.9539 2.8517-3.3801 6.7634-3.5045 8.6272 0.365 1.5712 3.2621 1.8419 7.1507 2.6712 11.205z" fill="#4B4B4B"/>
<path d="m570.82 208.75c-8.5654-0.52138-9.6611 0.44006-10.072 8.9908-0.051636 1.0738-0.53796 2.1267-1.1964 3.2784 0.26459-3.5349 0.27106-7.433 1.6959-10.715 1.9141-4.4095 5.1079-4.7188 9.5723-1.5538z" fill="#494949"/>
<path d="m170.56 249.73c-0.56613-0.89781-1.0627-2.2102-1.3145-3.568-1.0262-5.535-1.9774-11.084-2.7105-16.878 1.5661 6.5034 2.8866 13.257 4.0249 20.446z" fill="#4B4B4B"/>
<path d="m186.03 222c-6.1228 0.12515-12.55 0.037796-19.059-0.43921 6.1975-0.1842 12.476 0.021256 19.059 0.43921z" fill="#4B4B4B"/>
<path d="m558.64 221.24c-0.73431 0.48514-1.9314 1.4521-3.153 1.4842-4.975 0.13092-9.9573-0.024505-15.384-0.28879 5.7231-0.52403 11.893-0.83371 18.537-1.1954z" fill="#494949"/>
<path d="m301.77 234.55c-6.2794 2.427-12.928 4.796-19.968 7.0229 6.272-2.455 12.936-4.768 19.968-7.0229z" fill="#404040"/>
<path d="m134.34 224.97c5.3237 0.23537 10.953 0.71178 16.635 1.5827-5.4083-0.18422-10.869-0.76292-16.635-1.5827z" fill="#4B4B4B"/>
<path d="m575.43 226.9c0.011963-0.52673 0.43726-1.56 0.95349-1.6077 4.9897-0.46088 9.9948-0.75616 15.283-0.83286-5.0686 0.97438-10.425 1.6829-16.236 2.4406z" fill="#494949"/>
<path d="m482.78 210.7c-1.2397-1.4826-2.8869-3.2042-3.5461-5.2449-1.2737-3.9432 0.62051-5.4027 6.4539-4.9347-5.9175 1.985-5.9175 1.985-2.9078 10.18z" fill="#414141"/>
<path d="m240.37 200.96c1.7505-0.0363 3.8307 0.11038 5.9108 0.25706-0.15936 2.1241-0.1384 4.2838-0.54784 6.3585-0.23407 1.1862-1.1688 2.234-2.1261 3.4248 0.006149-1.1749 0.12918-2.5504 0.73382-3.6645 2.2784-4.1979 0.37868-5.781-3.9707-6.3759z" fill="#404040"/>
<path d="m347.89 25.641c-0.47925 0.42964-0.85767 0.39381-1.5206 0.38151-0.28455-5.9007-0.28455-11.825-0.28455-17.749 0.63534-0.002436 1.2707-0.004873 1.906-0.00731 0 5.6365 0 11.273-0.10083 17.375z" fill="#5D5D5D"/>
<path d="m148.19 265.32c4.2789 2.2472 2.001 6.4813 2.4036 10.314-0.99594-3.0927-1.7549-6.4919-2.4036-10.314z" fill="#4B4B4B"/>
<path d="m575.9 275.67c0.20215-3.3379 0.65839-6.9571 1.459-10.674-0.17206 3.399-0.6886 6.8959-1.459 10.674z" fill="#494949"/>
<path d="m537.35 222.08c0.60413 0.43361 1.0298 0.75856 1.8203 1.7992-3.0884 0.49193-6.5415 0.26813-9.9946 0.044327 0.001159-0.41789 0.002319-0.83578 0.003479-1.2537 2.6642-0.23283 5.3283-0.46568 8.1709-0.58988z" fill="#494949"/>
<path d="m186.85 224.74c-0.10918-0.62332 0.11528-1.1031 0.96784-2.0707 3.3895-0.48792 6.151-0.48792 8.9125-0.48792 0.045364 0.48505 0.090744 0.97009 0.13612 1.4551-3.2276 0.4157-6.4552 0.83138-10.016 1.1035z" fill="#4B4B4B"/>
<path d="m150.13 235.34c-0.23897 3.6349-0.71603 7.5597-1.5412 11.616 0.20227-3.6878 0.75272-7.5068 1.5412-11.616z" fill="#4B4B4B"/>
<path d="m577.87 246.65c-0.97211-3.3851-1.8433-7.2082-2.4706-11.307 1.0197 3.4393 1.7957 7.1541 2.4706 11.307z" fill="#494949"/>
<path d="m466.13 191.37c0.46146 1.681 0.70679 3.6785 1.0718 6.6512-2.8463-0.3788-4.955-0.65944-7.1875-1.2878 3.0834-0.37676 5.9769-0.80777 6.1157-5.3633z" fill="#414141"/>
<path d="m265.7 196.28c-1.5529 0.77577-3.5093 1.4363-6.4681 2.4352 0-2.7591 0-4.4328 0.259-6.384 1.1045 2.4467 2.3251 4.6648 6.2091 3.9487z" fill="#404040"/>
<path d="m444.31 241.21c-3.8941-0.94847-8.0605-2.119-12.307-3.6328 3.958 0.90802 7.9966 2.1594 12.307 3.6328z" fill="#3D3D3D"/>
<path d="m650.72 310.01c-3.3892-0.79178-7.0247-1.8482-10.765-3.2266 3.4365 0.7727 6.9774 1.8673 10.765 3.2266z" fill="#494949"/>
<path d="m85.773 306.43c-3.1604 1.4431-6.6936 2.8468-10.477 4.0519 3.2011-1.4961 6.6529-2.7938 10.477-4.0519z" fill="#4B4B4B"/>
<path d="m635.71 305.02c-3.3826-0.80942-7.0172-1.8774-10.753-3.2692 3.4329 0.78763 6.9669 1.8991 10.753 3.2692z" fill="#494949"/>
<path d="m100.77 301.39c-3.1578 1.4604-6.6888 2.876-10.47 4.0922 3.1987-1.512 6.6479-2.8245 10.47-4.0922z" fill="#4B4B4B"/>
<path d="m620.71 300c-3.3765-0.8212-7.0129-1.8915-10.745-3.2887 3.4313 0.79523 6.9582 1.9174 10.745 3.2887z" fill="#494949"/>
<path d="m115.76 296.35c-3.1564 1.4602-6.6868 2.8823-10.466 4.1021 3.1982-1.5148 6.645-2.8276 10.466-4.1021z" fill="#4B4B4B"/>
<path d="m555.61 259.32c0.46625 2.7838 0.75952 5.9167 0.79993 9.352-0.49292-2.7993-0.73285-5.9012-0.79993-9.352z" fill="#494949"/>
<path d="m665.72 315.01c-3.3884-0.78626-7.0212-1.8395-10.764-3.2115 3.4332 0.76901 6.9764 1.8568 10.764 3.2115z" fill="#494949"/>
<path d="m70.777 311.45c-3.1623 1.4278-6.6975 2.8218-10.483 4.0208 3.2033-1.4816 6.6564-2.7681 10.483-4.0208z" fill="#4B4B4B"/>
<path d="m283.2 199.41c-0.37039-0.65772-0.37601-1.1332-0.34076-1.8452 2.0958-0.018631 4.1507 0.19925 6.2057 0.41713-0.007172 0.44151-0.014313 0.88304-0.021454 1.3246-1.8262 0.095261-3.6524 0.19051-5.8434 0.10353z" fill="#404040"/>
<path d="m170.03 268.65c-0.2523-2.4836-0.32686-5.3027-0.12482-8.4 0.28526 2.5027 0.29392 5.2837 0.12482 8.4z" fill="#4B4B4B"/>
<path d="m456.3 245.28c-2.9014-0.61853-6.0605-1.4765-9.2989-2.6774 2.9609 0.58409 6.0011 1.511 9.2989 2.6774z" fill="#3D3D3D"/>
<path d="m278.7 242.2c-2.5683 1.2438-5.5159 2.4275-8.8598 3.4637 2.5627-1.2729 5.5215-2.3983 8.8598-3.4637z" fill="#404040"/>
<path d="m441.93 197.18c0.52222 0.52759 0.75928 0.94168 1.1171 1.6986-2.1296 0.34282-4.3799 0.34282-6.6302 0.34282-0.053223-0.35437-0.10645-0.70874-0.15967-1.0631 1.7959-0.36394 3.5918-0.72788 5.6728-0.9783z" fill="#3D3D3D"/>
<path d="m259.66 187.77c-1.6008-1.3727-3.128-3.086-4.7064-5.1328 1.5592 1.375 3.1696 3.0837 4.7064 5.1328z" fill="#404040"/>
<path d="m470.76 182.22c-1.006 2.0052-2.3457 3.9241-4.0154 5.8725 1.0073-1.9666 2.3444-3.9628 4.0154-5.8725z" fill="#414141"/>
<path d="m501.3 260.18c-2.8815-0.60925-6.0378-1.4341-9.2845-2.5991 2.9429 0.56781 5.9764 1.4756 9.2845 2.5991z" fill="#414141"/>
<path d="m599.17 224.33c-0.31702-0.63597-0.27136-1.1357-0.23572-1.8881 1.8174-0.1172 3.6449 0.018158 5.4724 0.15352 0.007141 0.4519 0.014282 0.90379 0.021423 1.3557-1.6318 0.17169-3.2636 0.34338-5.2581 0.37886z" fill="#494949"/>
<path d="m126.7 222.08c0.39983 0.60924 0.42522 1.1121 0.48421 1.8676-1.8303 0.25261-3.6943 0.25261-5.5582 0.25261-0.039337-0.41962-0.078674-0.83925-0.118-1.2589 1.6058-0.32256 3.2117-0.64513 5.192-0.8613z" fill="#4B4B4B"/>
<path d="m261.11 201.79c1.0115-3.6401 3.9991-1.2207 6.5692-1.2794-1.8707 0.5516-4.0161 0.84024-6.5692 1.2794z" fill="#404040"/>
<path d="m517.11 265.47c-2.862-0.6344-5.9512-1.5446-9.1255-2.7928 2.9093 0.61368 5.9038 1.5653 9.1255 2.7928z" fill="#414141"/>
<path d="m677.72 319.02c-2.3934-0.46603-5.0302-1.196-7.7695-2.24 2.4402 0.44934 4.9833 1.2127 7.7695 2.24z" fill="#494949"/>
<path d="m366.92 16.609c-2.2774 0.37877-4.6696 0.39587-7.5097 0.38868 1.8911-3.2399 4.5954-2.5095 7.5097-0.38868z" fill="#373737"/>
<path d="m483.65 251.71c-0.46838-1.7839-0.86978-3.9762-1.0053-6.4285 0.53467 1.8333 0.80347 3.9268 1.0053 6.4285z" fill="#414141"/>
<path d="m142.75 287.24c-2.1675 1.1583-4.7 2.2432-7.4743 3.1302 2.2086-1.1998 4.6589-2.2017 7.4743-3.1302z" fill="#4B4B4B"/>
<path d="m590.71 289.95c-2.3695-0.50522-5.0085-1.2415-7.7337-2.3028 2.4306 0.47397 4.9474 1.2728 7.7337 2.3028z" fill="#494949"/>
<path d="m127.75 292.29c-2.1688 1.1585-4.7031 2.2514-7.4774 3.1422 2.2106-1.204 4.6612-2.2058 7.4774-3.1422z" fill="#4B4B4B"/>
<path d="m605.71 294.98c-2.3848-0.49634-5.0315-1.2337-7.7549-2.2999 2.4465 0.46707 4.9697 1.2629 7.7549 2.2999z" fill="#494949"/>
<path d="m55.78 316.44c-2.1752 1.1062-4.7176 2.1832-7.4971 3.0517 2.2186-1.166 4.6742-2.1234 7.4971-3.0517z" fill="#4B4B4B"/>
<path d="m459.39 200.96c1.8895 0.055969 4.1289 0.28276 6.1433 0.74051-2.0811-0.03595-3.9373-0.30281-6.1433-0.74051z" fill="#3D3D3D"/>
<path d="m168.32 226.87c1.7604-0.57994 3.9284-1.0676 6.3695-1.3118-1.8053 0.63036-3.8836 1.0172-6.3695 1.3118z" fill="#4B4B4B"/>
<path d="m551.34 226.04c1.965-0.13728 4.2429-0.035812 6.6323 0.40225-2.0321 0.16988-4.1757 0.003189-6.6323-0.40225z" fill="#494949"/>
<path d="m273.24 200.72c1.8261-0.55035 3.9948-1.0168 6.4348-1.2367-1.8498 0.60454-3.9711 0.9626-6.4348 1.2367z" fill="#404040"/>
<path d="m446.27 199.95c2.061-0.15067 4.3408-0.075104 6.7296 0.34167-2.0976 0.189-4.3042 0.036789-6.7296-0.34167z" fill="#3D3D3D"/>
<path d="m179.24 225.73c1.17-0.57002 2.7118-1.0254 4.4817-1.2343-1.2179 0.61398-2.6639 0.98146-4.4817 1.2343z" fill="#4B4B4B"/>
<path d="m483.08 242.65c-0.1582-1.3052-0.14978-2.9449 0.17444-4.6798 0.20792 1.385 0.10004 2.8651-0.17444 4.6798z" fill="#414141"/>
<path d="m542.32 224.99c1.3461-0.16817 2.9728-0.084671 4.7055 0.31134-1.4043 0.18846-2.9146 0.064392-4.7055-0.31134z" fill="#494949"/>
<path d="m556.65 276.23c0.34204 0.59616 0.42322 1.4375 0.5044 2.2788-1.0592-0.125-2.1183-0.25003-3.2463-0.70068 0.78119-0.66138 1.6311-0.99716 2.7419-1.5781z" fill="#494949"/>
<path d="m171.8 277.47c-0.55164 0.4415-1.4598 0.86224-2.368 1.283-0.26297-0.77975-0.52596-1.5595-0.5574-2.5546 1.0106 0.27341 1.7897 0.76215 2.9254 1.2716z" fill="#4B4B4B"/>
<path d="m251.75 182.16c-0.7679 1.0348-1.8631 1.978-3.299 2.9013 0.76347-1.0109 1.8675-2.0018 3.299-2.9013z" fill="#404040"/>
<path d="m477.86 184.71c-1.2592-0.37999-2.5511-1.0896-3.8925-2.1298 1.2536 0.37968 2.5567 1.0899 3.8925 2.1298z" fill="#414141"/>
<path d="m373.64 22.771c-1.2313-0.76047-2.4909-1.8361-3.7429-3.2627 1.2432 0.74857 2.479 1.848 3.7429 3.2627z" fill="#373737"/>
<path d="m355.78 19.215c-0.70691 1.2569-1.7287 2.5661-3.097 3.8759 0.69638-1.2741 1.7392-2.5489 3.097-3.8759z" fill="#373737"/>
<path d="m429.33 236.22c-1.5661-0.17738-3.3867-0.57945-5.3431-1.3002 1.6056 0.14606 3.3471 0.61079 5.3431 1.3002z" fill="#3D3D3D"/>
<path d="m578.09 258.74c-0.31079-0.92093-0.45972-2.0902-0.39685-3.4917 0.32739 0.92633 0.44305 2.0848 0.39685 3.4917z" fill="#494949"/>
<path d="m147.96 255.27c0.27798 0.91218 0.41257 2.0835 0.33411 3.4843-0.30119-0.92209-0.38934-2.0736-0.33411-3.4843z" fill="#4B4B4B"/>
<path d="m276.72 196.89c-0.73914 0.19595-1.7403 0.1851-2.7999-0.10896 0.80698-0.22144 1.6725-0.15965 2.7999 0.10896z" fill="#404040"/>
<path d="m150.43 278.25c0.33452 0.63162 0.53276 1.6734 0.47885 2.8279-0.37314-0.73077-0.49412-1.5743-0.47885-2.8279z" fill="#4B4B4B"/>
<path d="m575.51 280.77c-0.30804-0.66776-0.4588-1.7363-0.33771-2.8719 0.34625 0.77896 0.42065 1.6251 0.33771 2.8719z" fill="#494949"/>
<path d="m242.02 217.3c0.24185 0.6651 0.30008 1.6002 0.14506 2.695-0.25172-0.70181-0.29021-1.5634-0.14506-2.695z" fill="#404040"/>
<path d="m484.16 219.83c-0.33746-0.62886-0.57007-1.5664-0.57733-2.646 0.37759 0.6844 0.52988 1.5108 0.57733 2.646z" fill="#414141"/>
<path d="m358.67 17.007c-0.39505 0.69012-1.0984 1.4226-2.1498 2.123 0.38178-0.71488 1.1117-1.3978 2.1498-2.123z" fill="#373737"/>
<path d="m369.75 18.796c-0.85028-0.18245-1.7866-0.66339-2.7215-1.4897 0.87936 0.16682 1.7574 0.67902 2.7215 1.4897z" fill="#373737"/>
<path d="m377.88 28.735c-0.58209-0.24735-1.1902-0.80285-1.7486-1.6968 0.60739 0.23725 1.165 0.81295 1.7486 1.6968z" fill="#373737"/>
<path d="m576.95 284.7c-0.50018-0.22644-1.06-0.74933-1.4208-1.4621 0.58636 0.26199 0.97382 0.71384 1.4208 1.4621z" fill="#494949"/>
<path d="m483.39 214.88c-0.38028-0.34802-0.66763-0.96966-0.75073-1.7213 0.41739 0.39589 0.63052 0.92178 0.75073 1.7213z" fill="#414141"/>
<path d="m242.99 213.26c0.18336 0.44028 0.19232 1.1134-0.039459 1.8484-0.20548-0.49728-0.1702-1.0564 0.039459-1.8484z" fill="#404040"/>
<path d="m150.04 283.21c0.005051 0.50092-0.23589 1.1794-0.75943 1.8197-0.017242-0.57285 0.24809-1.1075 0.75943-1.8197z" fill="#4B4B4B"/>
<path d="m247.45 185.76c0.058533 0.63338-0.1584 1.407-0.68959 2.2722-0.071457-0.64966 0.17132-1.3908 0.68959-2.2722z" fill="#404040"/>
<path d="m479.64 187.82c-0.5723-0.32745-1.067-0.95329-1.4601-1.8921 0.58038 0.32259 1.059 0.95814 1.4601 1.8921z" fill="#414141"/>
<path d="m305.4 226.73c0.13089 0.59715 0.011627 1.3665-0.38202 2.2882-0.13898-0.60379-0.00354-1.3599 0.38202-2.2882z" fill="#404040"/>
<path d="m150.9 231.19c0.22324 0.53204 0.16339 1.223-0.15946 1.9426-0.21655-0.57544-0.17009-1.1796 0.15946-1.9426z" fill="#4B4B4B"/>
<path d="m304.07 231.25c0.071594 0.46606-0.08725 1.1349-0.51044 1.8228-0.082886-0.5273 0.098541-1.0737 0.51044-1.8228z" fill="#404040"/>
<path d="m422.76 232.78c-0.52289-0.26926-0.99127-0.83823-1.2576-1.5669 0.57211 0.31592 0.94211 0.7916 1.2576 1.5669z" fill="#3D3D3D"/>
<path d="m575.65 232.85c-0.51648-0.32619-0.89978-0.94653-1.0583-1.6928 0.547 0.38226 0.86926 0.89049 1.0583 1.6928z" fill="#494949"/>
</svg>
