<svg viewBox="0 0 32 32" xmlns="http://www.w3.org/2000/svg"><path d="M16.01,3.85C16.01,3.85,16.01,3.85,16.01,3.85L16.01,3.85c-0.5,0.02,-0.76,0.96,-0.94,1.77c-0.36,1.67,-0.54,3.41,-0.56,5.1l-2.49,0.06l0,-2.47l0.48,0l0,-0.76c0,-0.56,-0.62,-0.5,-0.62,-0.5s-0.02,-0.22,-0.06,-0.46c0.34,0.02,0.68,0.04,0.85,0.02c0.43,0,0.48,-0.04,0.48,-0.12c0,-0.08,-0.04,-0.12,-0.48,-0.12c-0.2,0,-0.57,0.02,-0.91,0.04c-0.08,-0.28,-0.2,-0.56,-0.42,-0.54c-0.2,0,-0.36,0.28,-0.46,0.57c-0.34,-0.02,-0.74,-0.02,-0.96,-0.04c-0.43,0,-0.48,0.04,-0.48,0.12c0,0.08,0.04,0.12,0.48,0.12c0.2,0,0.56,0,0.9,-0.02c-0.06,0.22,-0.08,0.43,-0.08,0.43c-0.6,0,-0.57,0.42,-0.57,0.42l0,0.8l0.36,0l0.04,2.24l-1.28,0.63L1,11.62l0,1.67l9.34,1.42l3.89,0.06L14.55,15.1c0.04,0.71,0.06,1.42,0.11,2.05c0.16,3.23,0.97,7.55,0.97,7.55L11,26.39l-0.06,1.45l4.78,-0.43c0,0,0.18,0.74,0.3,0.74c0.12,0,0.3,-0.74,0.3,-0.74l4.78,0.43l-0.06,-1.45l-4.66,-1.67c0,0,0.82,-4.32,0.97,-7.55c0.04,-0.63,0.06,-1.33,0.11,-2.05l0.32,-0.36l3.89,-0.06l9.34,-1.42l0,-1.67L22.76,11.17l-1.28,-0.63l0.04,-2.24l0.36,0l0,-0.8c0,0,0.04,-0.43,-0.57,-0.42c0,0,-0.04,-0.2,-0.08,-0.43c0.34,0.02,0.7,0.02,0.9,0.02c0.43,0,0.48,-0.04,0.48,-0.12c0,-0.08,-0.04,-0.12,-0.48,-0.12c-0.2,0,-0.6,0,-0.96,0.04c-0.08,-0.28,-0.23,-0.56,-0.46,-0.57c-0.2,0,-0.34,0.26,-0.42,0.54c-0.34,-0.02,-0.7,-0.02,-0.91,-0.04c-0.43,0,-0.48,0.04,-0.48,0.12s0.04,0.12,0.48,0.12c0.2,0,0.54,-0.02,0.85,-0.02c-0.04,0.23,-0.06,0.46,-0.06,0.46s-0.62,-0.06,-0.62,0.5l0,0.76l0.48,0l0,2.47l-2.49,-0.06c-0.06,-1.7,-0.2,-3.43,-0.56,-5.1C16.77,4.81,16.49,3.85,16.01,3.85L16.01,3.85C16.01,3.85,16.01,3.85,16.01,3.85"/></svg>