<svg viewBox="0 0 32 32" xmlns="http://www.w3.org/2000/svg"><path d="M15.25,1.875C14.5,4.148438,14.023438,7.023438,14,9.425781L14,11.476562 12.898438,12.351562C11.699219,13.351562 11.5,13.425781 11.5,12.875 11.5,12.648438 11.273438,12.5 10.898438,12.5 10.398438,12.5 10.273438,12.648438 10.199219,13.300781 10.125,14.050781 9.925781,14.175781 5.625,16.351562 1.273438,18.550781 1.125,18.648438 1.050781,19.449219 1,19.875 1.023438,20.25 1.101562,20.25 1.175781,20.25 3.226562,19.675781 5.675781,19 9.523438,17.925781 10.148438,17.800781 10.398438,18.125 10.625,18.449219 10.726562,18.449219 11.148438,18.125 11.398438,17.925781 12.148438,17.75 12.773438,17.75L13.925781,17.75 14.074219,21.550781C14.175781,23.648438,14.351562,25.800781,14.476562,26.300781L14.699219,27.226562 12.476562,28.773438C10.574219,30.125 10.25,30.449219 10.25,31.050781 10.25,31.425781 10.375,31.75 10.523438,31.75 10.648438,31.75 11.851562,31.5 13.148438,31.199219 15.199219,30.726562 15.574219,30.699219 15.773438,31.023438 15.976562,31.324219 16.023438,31.324219 16.226562,31.023438 16.425781,30.699219 16.800781,30.726562 18.851562,31.199219 20.148438,31.5 21.351562,31.75 21.476562,31.75 21.625,31.75 21.75,31.425781 21.75,31.050781 21.75,30.449219 21.425781,30.125 19.550781,28.800781L17.351562,27.25 17.648438,25.175781C17.824219,24.050781,17.976562,21.925781,17.976562,20.425781L18,17.75 19.199219,17.75C19.851562,17.75 20.601562,17.925781 20.851562,18.125 21.273438,18.449219 21.375,18.449219 21.601562,18.125 21.851562,17.800781 22.476562,17.925781 26.324219,19 28.773438,19.675781 30.824219,20.25 30.898438,20.25 30.976562,20.25 31,19.875 30.949219,19.449219 30.875,18.648438 30.726562,18.550781 26.375,16.351562 22.074219,14.175781 21.875,14.050781 21.800781,13.300781 21.726562,12.648438 21.601562,12.5 21.101562,12.5 20.726562,12.5 20.5,12.648438 20.5,12.875 20.5,13.425781 20.300781,13.351562 19.101562,12.351562L18,11.476562 18,9.425781C17.976562,8.300781 17.824219,6.5 17.648438,5.449219 17.25,3.199219 16.300781,0.25 16,0.25 15.875,0.25 15.550781,0.976562 15.25,1.875z"/></svg>
