<svg viewBox="0 0 32 32" xmlns="http://www.w3.org/2000/svg"><path d="M15.699219,0.101562C15.179688,0.460938 14.75,1.992188 14.5625,4.09375 14.523438,4.507812 14.476562,5.851562 14.457031,7.082031L14.417969,9.320312 13.007812,10.5625 11.59375,11.8125 11.5625,11.398438C11.523438,10.886719 11.4375,10.8125 10.90625,10.8125 10.292969,10.8125 10.25,10.867188 10.25,11.675781 10.25,12.042969 10.273438,12.382812 10.304688,12.425781 10.332031,12.46875 10.429688,12.523438 10.53125,12.550781 10.699219,12.601562 10.632812,12.664062 8.929688,14.167969L7.15625,15.742188 7.136719,15.261719C7.125,15 7.085938,14.75 7.050781,14.707031 6.960938,14.601562 6.054688,14.59375 5.949219,14.699219 5.898438,14.75 5.875,15.023438 5.875,15.511719 5.875,16.113281 5.894531,16.261719 5.96875,16.289062 6.023438,16.3125 6.0625,16.40625 6.0625,16.523438 6.054688,16.699219 5.894531,16.863281 4.28125,18.28125L2.507812,19.84375 2.507812,21.3125C2.507812,22.117188 2.523438,22.738281 2.542969,22.6875 2.570312,22.636719 2.625,22.386719 2.679688,22.132812L2.78125,21.667969 10.15625,17.480469 12.1875,16.832031C13.304688,16.476562 14.269531,16.167969 14.332031,16.148438 14.429688,16.117188 14.4375,16.320312 14.4375,19.769531 14.4375,22.582031 14.460938,23.636719 14.53125,24.382812 14.632812,25.398438 14.78125,26.34375 14.875,26.585938 14.9375,26.757812 14.976562,26.710938 12.210938,29.382812L10.949219,30.59375 10.90625,31.269531C10.882812,31.644531 10.875,31.960938 10.894531,31.976562 10.90625,31.992188 11.945312,31.699219 13.195312,31.324219 14.445312,30.949219 15.476562,30.648438 15.488281,30.65625 15.5,30.667969 15.5625,30.917969 15.632812,31.210938 15.707031,31.507812 15.8125,31.8125 15.882812,31.886719L16,32.03125 16.117188,31.886719C16.1875,31.8125 16.292969,31.507812 16.367188,31.210938 16.4375,30.917969 16.5,30.667969 16.511719,30.65625 16.523438,30.648438 17.554688,30.949219 18.804688,31.324219 20.054688,31.699219 21.09375,31.992188 21.105469,31.976562 21.125,31.960938 21.117188,31.644531 21.09375,31.269531L21.050781,30.59375 19.789062,29.382812C17.023438,26.710938 17.0625,26.757812 17.125,26.585938 17.21875,26.34375 17.367188,25.398438 17.46875,24.382812 17.539062,23.636719 17.5625,22.582031 17.5625,19.769531 17.5625,16.320312 17.570312,16.117188 17.675781,16.148438 17.730469,16.167969 18.695312,16.476562 19.8125,16.832031L21.851562,17.480469 25.53125,19.574219 29.21875,21.667969 29.320312,22.132812C29.375,22.386719 29.429688,22.636719 29.457031,22.6875 29.476562,22.738281 29.492188,22.117188 29.492188,21.3125L29.492188,19.84375 27.71875,18.28125C26.105469,16.863281 25.945312,16.699219 25.9375,16.523438 25.9375,16.40625 25.976562,16.3125 26.03125,16.289062 26.105469,16.261719 26.125,16.113281 26.125,15.511719 26.125,15.023438 26.101562,14.75 26.050781,14.699219 25.945312,14.59375 25.039062,14.601562 24.949219,14.707031 24.914062,14.75 24.875,15 24.863281,15.261719L24.84375,15.742188 23.070312,14.167969C21.367188,12.664062 21.300781,12.601562 21.46875,12.550781 21.570312,12.523438 21.667969,12.46875 21.695312,12.425781 21.726562,12.382812 21.75,12.042969 21.75,11.675781 21.75,10.867188 21.707031,10.8125 21.09375,10.8125 20.5625,10.8125 20.476562,10.886719 20.4375,11.398438L20.40625,11.8125 18.992188,10.5625 17.582031,9.320312 17.542969,7.082031C17.519531,5.851562 17.476562,4.507812 17.4375,4.09375 17.210938,1.554688 16.667969,0 16,0 15.914062,0 15.773438,0.0429688 15.699219,0.101562z"/></svg>
