<svg viewBox="0 0 32 32" xmlns="http://www.w3.org/2000/svg"><path d="M15.648438,0.199219C14.882812,0.875 14.40625,2.398438 14.25,4.699219 14.210938,5.226562 14.1875,6.769531 14.195312,8.125L14.195312,10.59375 13.980469,10.84375C13.800781,11.0625 11.699219,12.625 11.601562,12.625 11.574219,12.625 11.582031,12.238281 11.601562,11.761719 11.636719,10.945312 11.636719,10.898438 11.5,10.730469L11.363281,10.554688 10.605469,10.574219 9.84375,10.59375 9.726562,10.832031C9.617188,11.054688 9.613281,11.136719 9.679688,11.957031 9.742188,12.726562 9.769531,12.855469 9.882812,12.949219 9.988281,13.039062 10.007812,13.117188 9.988281,13.417969L9.96875,13.78125 8.53125,14.773438C7.742188,15.320312 5.550781,16.824219 3.664062,18.113281 0.8125,20.0625 0.21875,20.492188 0.148438,20.664062 0.0429688,20.917969 0.03125,21.757812 0.136719,21.863281 0.179688,21.90625 0.269531,21.9375 0.332031,21.9375 0.445312,21.9375 3.71875,20.726562 7.0625,19.445312 8.449219,18.914062 8.539062,18.886719 8.585938,19.007812 8.667969,19.179688 8.789062,19.148438 8.851562,18.929688 8.898438,18.769531 8.96875,18.710938 9.375,18.554688 9.738281,18.414062 11.324219,18.0625 11.617188,18.0625 11.648438,18.0625 11.695312,18.132812 11.710938,18.21875 11.769531,18.429688 11.917969,18.414062 11.96875,18.1875 12.019531,17.96875 11.976562,17.988281 13.1875,17.78125 13.71875,17.6875 14.207031,17.601562 14.269531,17.585938 14.367188,17.554688 14.375,17.726562 14.375,20.574219 14.375,22.867188 14.398438,23.789062 14.46875,24.40625 14.574219,25.292969 14.71875,26.167969 14.804688,26.488281 14.863281,26.679688 14.851562,26.707031 14.574219,26.960938 14.230469,27.28125 12.53125,28.726562 11.050781,29.957031 10.226562,30.644531 10.007812,30.855469 9.976562,31.011719 9.929688,31.242188 9.925781,32 9.96875,32 9.988281,32 11.238281,31.6875 12.75,31.3125 14.261719,30.929688 15.523438,30.625 15.554688,30.625 15.585938,30.625 15.632812,30.71875 15.65625,30.824219 15.863281,31.875 16.136719,31.875 16.34375,30.824219 16.367188,30.71875 16.414062,30.625 16.445312,30.625 16.476562,30.625 17.738281,30.9375 19.25,31.3125 20.761719,31.695312 22.011719,32 22.03125,32 22.074219,32 22.070312,31.242188 22.023438,31.011719 21.992188,30.855469 21.773438,30.644531 20.949219,29.957031 19.46875,28.726562 17.769531,27.28125 17.425781,26.960938 17.148438,26.707031 17.136719,26.679688 17.195312,26.488281 17.28125,26.167969 17.425781,25.292969 17.53125,24.40625 17.601562,23.789062 17.625,22.867188 17.625,20.574219 17.625,17.726562 17.632812,17.554688 17.738281,17.585938 17.792969,17.601562 18.28125,17.6875 18.8125,17.78125 20.023438,17.988281 19.980469,17.96875 20.03125,18.1875 20.082031,18.414062 20.230469,18.429688 20.289062,18.21875 20.304688,18.132812 20.351562,18.0625 20.382812,18.0625 20.675781,18.0625 22.261719,18.414062 22.625,18.554688 23.03125,18.710938 23.101562,18.769531 23.148438,18.929688 23.210938,19.148438 23.332031,19.179688 23.414062,19.007812 23.460938,18.886719 23.550781,18.914062 24.9375,19.445312 28.28125,20.726562 31.554688,21.9375 31.667969,21.9375 31.730469,21.9375 31.820312,21.90625 31.863281,21.863281 31.96875,21.757812 31.957031,20.917969 31.851562,20.664062 31.78125,20.492188 31.1875,20.0625 28.335938,18.113281 26.449219,16.824219 24.261719,15.320312 23.46875,14.773438L22.03125,13.78125 22.011719,13.417969C21.992188,13.117188 22.011719,13.039062 22.117188,12.949219 22.230469,12.855469 22.257812,12.71875 22.320312,11.988281 22.394531,11.0625 22.351562,10.742188 22.125,10.625 22.0625,10.585938 21.699219,10.5625 21.320312,10.5625 20.644531,10.5625 20.632812,10.5625 20.5,10.730469 20.367188,10.898438 20.363281,10.945312 20.398438,11.761719 20.425781,12.238281 20.425781,12.625 20.40625,12.625 20.300781,12.625 18.207031,11.0625 18.019531,10.84375L17.804688,10.59375 17.804688,8.125C17.820312,4.53125 17.6875,3.050781 17.242188,1.710938 16.949219,0.824219 16.351562,0 16,0 15.929688,0 15.773438,0.09375 15.648438,0.199219z"/></svg>
