<svg viewBox="0 0 32 32" xmlns="http://www.w3.org/2000/svg"><path d="M15.613281,0.117188C15.230469,0.417969 14.835938,1.507812 14.625,2.84375 14.417969,4.132812 14.367188,5.007812 14.332031,7.945312L14.292969,10.792969 13.355469,11.445312C12.835938,11.800781 12.386719,12.101562 12.363281,12.113281 12.335938,12.125 12.3125,11.84375 12.3125,11.480469 12.3125,10.71875 12.230469,10.550781 11.792969,10.429688 11.476562,10.34375 10.824219,10.398438 10.5625,10.53125L10.375,10.632812 10.375,11.832031C10.375,12.835938 10.394531,13.054688 10.476562,13.179688 10.5625,13.300781 10.5625,13.335938 10.492188,13.40625 10.445312,13.449219 8.320312,14.925781 5.769531,16.6875 0.5,20.320312 0.867188,20.007812 0.824219,20.957031 0.789062,21.632812 0.832031,21.667969 1.363281,21.425781 1.988281,21.148438 4.625,20.0625 7.664062,18.835938L10.355469,17.757812 12.300781,17.710938 14.242188,17.667969 14.269531,21.351562 14.292969,25.03125 14.488281,26.125 14.6875,27.210938 14.5625,27.34375C14.492188,27.414062,13.554688,28.1875,12.480469,29.070312L10.53125,30.664062 10.511719,31.273438C10.5,31.824219 10.507812,31.886719 10.601562,31.851562 11.15625,31.636719 15.335938,30.25 15.355469,30.273438 15.375,30.292969 15.476562,30.664062 15.585938,31.101562 15.71875,31.617188 15.824219,31.917969 15.894531,31.960938 16.105469,32.09375 16.207031,31.929688 16.414062,31.101562 16.523438,30.664062 16.625,30.292969 16.644531,30.273438 16.664062,30.25 20.84375,31.636719 21.398438,31.851562 21.492188,31.886719 21.5,31.824219 21.488281,31.273438L21.46875,30.664062 19.519531,29.070312C18.445312,28.1875,17.507812,27.414062,17.4375,27.34375L17.3125,27.210938 17.511719,26.125 17.707031,25.03125 17.730469,21.351562 17.757812,17.667969 19.699219,17.710938 21.644531,17.757812 24.335938,18.835938C27.375,20.0625 30.011719,21.148438 30.636719,21.425781 31.167969,21.667969 31.210938,21.632812 31.175781,20.957031 31.132812,20.007812 31.5,20.320312 26.230469,16.6875 23.679688,14.925781 21.570312,13.460938 21.539062,13.429688 21.5,13.398438 21.523438,13.28125 21.585938,13.144531 21.675781,12.945312 21.6875,12.730469 21.675781,11.789062 21.65625,10.675781 21.65625,10.667969 21.5,10.550781 21.292969,10.398438 20.625,10.335938 20.261719,10.429688 19.835938,10.550781 19.789062,10.648438 19.75,11.46875L19.71875,12.179688 18.710938,11.488281 17.707031,10.789062 17.667969,7.945312C17.648438,6.375 17.601562,4.757812 17.5625,4.34375 17.414062,2.667969 17.113281,1.3125 16.738281,0.605469 16.492188,0.15625 16.304688,0 16,0 15.863281,0 15.699219,0.0507812 15.613281,0.117188z"/></svg>
