<svg viewBox="0 0 32 32" xmlns="http://www.w3.org/2000/svg"><path d="M15.601562,0.132812C15.242188,0.414062 14.917969,1.207031 14.695312,2.324219 14.398438,3.804688 14.3125,5.101562 14.3125,8.03125L14.304688,10.34375 13.136719,11.273438 11.96875,12.199219 11.9375,11.257812C11.894531,10,11.925781,10.03125,10.804688,10.03125L9.988281,10.03125 9.835938,10.207031C9.6875,10.382812 9.6875,10.398438 9.6875,11.679688 9.6875,12.90625 9.695312,12.992188 9.820312,13.148438 9.886719,13.238281 9.992188,13.3125 10.050781,13.3125 10.113281,13.3125 10.1875,13.363281 10.230469,13.429688 10.292969,13.53125 9.90625,13.863281 6.273438,16.78125 2.304688,19.976562 1.585938,20.605469 1.15625,21.28125 0.769531,21.882812 0.507812,22.792969 0.679688,22.90625 0.726562,22.929688 0.914062,22.800781 1.136719,22.59375 2.195312,21.617188 2.574219,21.417969 8.300781,18.914062L10.820312,17.8125 14.242188,17.8125 14.261719,20.855469C14.289062,23.601562 14.300781,24.007812 14.429688,24.9375 14.507812,25.507812 14.625,26.210938 14.6875,26.519531L14.800781,27.070312 12.875,28.90625 10.957031,30.75 10.914062,31.226562C10.855469,31.894531 10.863281,32 10.957031,32 10.992188,32 11.875,31.632812 12.898438,31.1875 14.300781,30.582031 14.835938,30.375 15.03125,30.375L15.289062,30.375 15.363281,30.738281C15.398438,30.929688 15.5,31.226562 15.574219,31.375 15.710938,31.644531 15.730469,31.65625 16,31.65625 16.269531,31.65625 16.289062,31.644531 16.425781,31.375 16.5,31.226562 16.601562,30.929688 16.636719,30.738281L16.710938,30.375 16.96875,30.375C17.164062,30.375 17.699219,30.582031 19.101562,31.1875 20.125,31.632812 21.007812,32 21.054688,32 21.125,32 21.136719,31.90625 21.101562,31.519531 21.082031,31.257812 21.0625,30.980469 21.0625,30.90625 21.0625,30.804688 20.53125,30.257812 19.132812,28.917969L17.199219,27.070312 17.3125,26.519531C17.375,26.210938 17.492188,25.507812 17.570312,24.9375 17.699219,24.007812 17.710938,23.601562 17.738281,20.863281L17.757812,17.8125 21.179688,17.8125 23.699219,18.914062C29.425781,21.417969 29.804688,21.617188 30.863281,22.59375 31.085938,22.800781 31.273438,22.929688 31.320312,22.90625 31.492188,22.792969 31.230469,21.882812 30.84375,21.28125 30.414062,20.605469 29.695312,19.976562 25.726562,16.78125 22.09375,13.863281 21.707031,13.53125 21.769531,13.429688 21.8125,13.363281 21.886719,13.3125 21.949219,13.3125 22.007812,13.3125 22.113281,13.238281 22.179688,13.148438 22.304688,12.992188 22.3125,12.90625 22.3125,11.679688 22.3125,10.398438 22.3125,10.382812 22.164062,10.207031L22.011719,10.03125 21.195312,10.03125C20.074219,10.03125,20.105469,10,20.0625,11.261719L20.03125,12.207031 18.875,11.273438 17.71875,10.34375 17.679688,7.5C17.636719,4.40625 17.585938,3.789062 17.304688,2.324219 17,0.78125 16.5625,0 16,0 15.855469,0 15.699219,0.0507812 15.601562,0.132812z"/></svg>
