<svg viewBox="0 0 32 32" xmlns="http://www.w3.org/2000/svg"><path d="M15.863281,4.90625L15.792969,5.0625 14.394531,5.0625C13.195312,5.0625 13,5.074219 13,5.15625 13,5.238281 13.195312,5.25 14.34375,5.25 15.082031,5.25 15.6875,5.269531 15.6875,5.292969 15.6875,5.324219 15.632812,5.429688 15.570312,5.539062 15.480469,5.679688 15.386719,5.742188 15.207031,5.769531 14.90625,5.820312 14.695312,6.03125 14.648438,6.320312 14.625,6.523438 14.4375,9.445312 14.4375,9.695312 14.4375,9.8125 14.355469,9.8125 11.332031,9.8125 7.824219,9.820312 0.554688,10.054688 0.324219,10.179688 0.0117188,10.351562 0,10.425781 0,12.070312L0,13.605469 0.363281,13.644531C0.554688,13.664062,2.667969,13.960938,5.050781,14.3125L9.382812,14.9375 14.601562,14.9375 15.011719,18.511719C15.238281,20.480469 15.417969,22.101562 15.414062,22.105469 15.40625,22.113281 14.574219,22.261719 13.5625,22.429688 11.21875,22.832031 11.289062,22.8125 11.164062,23.125 10.980469,23.582031 11.0625,24.710938 11.300781,25 11.386719,25.105469 11.667969,25.164062 13.125,25.375 14.070312,25.511719 14.894531,25.625 14.949219,25.625 15.023438,25.625 15.148438,25.449219 15.335938,25.074219 15.5,24.75 15.625,24.570312 15.644531,24.625 15.664062,24.675781 15.71875,25.28125 15.773438,25.960938 15.832031,26.648438 15.898438,27.238281 15.9375,27.273438 16.074219,27.414062 16.132812,27.167969 16.226562,25.960938 16.28125,25.28125 16.335938,24.675781 16.355469,24.625 16.375,24.570312 16.5,24.75 16.664062,25.074219 16.851562,25.449219 16.976562,25.625 17.050781,25.625 17.105469,25.625 17.929688,25.511719 18.875,25.375 20.332031,25.164062 20.613281,25.105469 20.699219,25 20.9375,24.710938 21.019531,23.582031 20.835938,23.125 20.710938,22.8125 20.78125,22.832031 18.4375,22.429688 17.425781,22.261719 16.59375,22.113281 16.585938,22.105469 16.582031,22.101562 16.761719,20.480469 16.988281,18.511719L17.398438,14.9375 22.617188,14.9375 26.949219,14.3125C29.332031,13.960938,31.445312,13.664062,31.644531,13.644531L32,13.605469 32,12.070312C32,10.425781 31.988281,10.351562 31.675781,10.179688 31.445312,10.054688 24.175781,9.820312 20.675781,9.8125 17.644531,9.8125 17.5625,9.8125 17.5625,9.695312 17.5625,9.445312 17.375,6.523438 17.351562,6.320312 17.304688,6.03125 17.09375,5.820312 16.792969,5.769531 16.613281,5.742188 16.519531,5.679688 16.429688,5.539062 16.367188,5.429688 16.3125,5.324219 16.3125,5.292969 16.3125,5.269531 16.917969,5.25 17.65625,5.25 18.804688,5.25 19,5.238281 19,5.15625 19,5.074219 18.804688,5.0625 17.605469,5.0625L16.207031,5.0625 16.136719,4.90625C16.101562,4.820312 16.039062,4.75 16,4.75 15.960938,4.75 15.898438,4.820312 15.863281,4.90625z"/></svg>
