<svg viewBox="0 0 32 32" xmlns="http://www.w3.org/2000/svg"><path d="M15.89,3.04C15.85,3.15,15.79,3.2,15.71,3.21C15.62,3.21,15.62,3.22,15.69,3.24C15.89,3.29,15.7,3.47,15.45,3.47L15.26,3.47L15.14,3.91C15.07,4.15,15.02,4.45,15.01,4.59C15.01,4.92,14.79,6.29,14.66,6.8C14.59,7.11,14.56,7.41,14.56,7.97C14.56,8.38,14.52,8.96,14.48,9.25C14.44,9.55,14.4,10.09,14.4,10.46L14.4,11.14L13.96,11.17C13.43,11.21,12.95,11.23,9.73,11.36C8.35,11.42,6.98,11.48,6.67,11.49C6.36,11.51,5.05,11.57,3.76,11.63C2.47,11.69,1.1,11.75,0.71,11.77L0,11.8L0,13.07L0,14.34L0.39,14.37C0.98,14.41,1.62,14.44,4.91,14.59C5.89,14.63,6.76,14.67,6.84,14.67L6.98,14.67L7,14.21C7.02,13.54,7.15,13.51,7.15,14.18L7.15,14.66L7.43,14.69C7.58,14.7,8.62,14.75,9.73,14.8C10.85,14.85,12.31,14.91,12.99,14.94L14.23,15.01L14.32,15.19C14.39,15.35,14.43,15.75,14.51,17.09C14.56,18.03,14.63,19.02,14.66,19.28C14.69,19.54,14.74,20.03,14.77,20.37C14.85,21.09,14.94,21.83,15.09,22.82C15.15,23.21,15.2,23.65,15.2,23.78C15.2,23.92,15.23,24.11,15.26,24.21C15.33,24.44,15.46,25.3,15.47,25.5C15.47,25.67,15.63,25.62,13.87,26.03C13.21,26.18,12.2,26.42,11.63,26.55L10.59,26.8L10.57,27.57C10.55,28.48,10.5,28.41,11.25,28.45C11.59,28.47,12.25,28.51,12.72,28.54C14.42,28.64,15.39,28.69,15.61,28.69C15.81,28.69,15.84,28.71,15.84,28.82C15.84,29.14,16.08,29.2,16.14,28.89L16.17,28.71L16.85,28.67C17.63,28.63,20.11,28.49,20.88,28.43L21.41,28.4L21.41,27.61L21.41,26.81L21.04,26.71C20.83,26.66,20.25,26.52,19.73,26.4C19.22,26.28,18.55,26.12,18.24,26.05C17.93,25.98,17.43,25.86,17.13,25.79C16.83,25.73,16.57,25.65,16.55,25.63C16.5,25.59,16.63,24.58,16.72,24.28C16.77,24.14,16.8,23.92,16.8,23.78C16.8,23.54,16.91,22.66,17.01,22.08C17.16,21.27,17.42,18.39,17.49,16.88C17.55,15.63,17.64,15.06,17.79,15.01C17.85,14.99,20.76,14.85,22.85,14.77C23.62,14.74,24.37,14.7,24.52,14.69L24.79,14.66L24.81,14.2C24.83,13.52,24.98,13.53,25,14.21L25.02,14.68L25.86,14.64C26.32,14.63,26.87,14.6,27.09,14.59C27.31,14.57,27.85,14.55,28.29,14.53C28.73,14.52,29.27,14.49,29.49,14.48C29.71,14.47,30.21,14.44,30.59,14.43C30.97,14.41,31.44,14.38,31.64,14.37L32,14.34L32,13.07L32,11.8L31.32,11.77C30.95,11.75,29.31,11.67,27.68,11.6C26.05,11.53,24.38,11.45,23.96,11.43L23.2,11.4L23.2,11.23C23.2,11.14,23.14,10.97,23.06,10.86L22.92,10.66L22.79,10.78C22.72,10.85,22.65,10.99,22.63,11.11C22.61,11.22,22.57,11.33,22.53,11.34C22.46,11.37,18.5,11.22,18.08,11.17C17.98,11.16,17.83,11.15,17.75,11.15L17.6,11.15L17.6,10.49C17.6,10.13,17.57,9.68,17.54,9.49C17.51,9.3,17.47,8.67,17.44,8.08C17.41,7.42,17.37,6.9,17.31,6.71C17.22,6.35,17.02,5.07,16.98,4.61C16.95,4.02,16.74,3.49,16.55,3.49C16.4,3.49,16.21,3.37,16.21,3.28C16.21,3.2,16.04,2.88,15.99,2.88C15.96,2.88,15.92,2.95,15.89,3.04ZM14.36,3.24C14.56,3.25,17.56,3.25,15.08,3.13C15.28,3.12,15.12,3.11,13.6,3.11C13.47,3.06,12.24,3.12,13.51,3.13ZM16.87,3.24C17.07,3.25,20.07,3.25,17.59,3.13C17.79,3.12,17.63,3.11,16.11,3.11C15.98,3.12,14.75,3.12,16.02,3.13Z"/></svg>
