<svg viewBox="0 0 32 32" xmlns="http://www.w3.org/2000/svg"><path d="M16.414062,2.554688C16.394531,2.605469 16.28125,3.300781 16.171875,4.089844 15.988281,5.355469 15.953125,5.808594 15.902344,7.757812 15.835938,10.015625 15.808594,10.253906 15.515625,11.261719 15.449219,11.496094 15.285156,12.085938 15.15625,12.570312 14.671875,14.332031 13.964844,16.332031 13.503906,17.238281 13.210938,17.828125 12.765625,18.519531 12.066406,19.503906 11.6875,20.027344 11.292969,20.636719 11.183594,20.84375 10.933594,21.335938 10.703125,22.101562 10.644531,22.632812 10.597656,23.03125 10.605469,23.039062 10.78125,23.128906 10.878906,23.183594 11.351562,23.261719 11.816406,23.300781 12.289062,23.339844 12.863281,23.390625 13.105469,23.410156 13.492188,23.445312 13.546875,23.46875 13.566406,23.585938 13.585938,23.71875 13.628906,23.730469 14.070312,23.75 14.441406,23.765625 14.574219,23.746094 14.671875,23.660156 14.769531,23.566406 14.875,23.5625 15.320312,23.601562 15.605469,23.625 15.863281,23.679688 15.882812,23.710938 15.910156,23.746094 15.949219,24.25 15.980469,24.832031 16.039062,25.890625 16.261719,28.71875 16.339844,29.382812 16.367188,29.578125 16.40625,29.707031 16.433594,29.675781 16.542969,29.558594 16.957031,24.996094 16.957031,23.855469L16.957031,23.644531 17.550781,23.601562C18.070312,23.5625 18.160156,23.566406 18.210938,23.660156 18.257812,23.746094 18.382812,23.765625 18.789062,23.765625 19.265625,23.765625 19.3125,23.75 19.3125,23.632812 19.3125,23.46875 19.351562,23.464844 20.753906,23.351562 21.382812,23.300781 21.984375,23.222656 22.089844,23.183594L22.277344,23.101562 22.238281,22.632812C22.148438,21.546875 21.714844,20.660156 20.445312,18.964844 19.847656,18.160156 19.632812,17.789062 19.160156,16.757812 18.675781,15.6875 18.265625,14.605469 18.011719,13.714844 17.890625,13.316406 17.761719,12.863281 17.707031,12.699219 17.519531,12.066406 17.074219,10.167969 17.054688,9.886719 17.035156,9.722656 17.007812,8.734375 16.988281,7.691406 16.96875,6.554688 16.917969,5.480469 16.859375,5.007812 16.695312,3.777344 16.457031,2.441406 16.414062,2.554688z"/></svg>
