<svg viewBox="0 0 32 32" xmlns="http://www.w3.org/2000/svg"><path d="M15.726562,6.308594C15.304688,6.679688,14.921875,8.261719,14.796875,10.117188L14.746094,10.925781 13.777344,10.925781 13.777344,10.066406C13.777344,9.453125 13.742188,9.1875 13.675781,9.164062 13.617188,9.140625 13.785156,9.113281 14.050781,9.113281 14.40625,9.105469 14.523438,9.074219 14.523438,8.988281 14.523438,8.890625 14.414062,8.875 13.933594,8.914062 13.402344,8.957031 13.34375,8.949219 13.226562,8.78125 13.070312,8.566406 12.996094,8.566406 12.789062,8.78125 12.648438,8.933594 12.546875,8.957031 12.066406,8.933594 11.675781,8.90625 11.503906,8.933594 11.476562,9 11.453125,9.082031 11.578125,9.105469 11.925781,9.113281 12.191406,9.113281 12.355469,9.140625 12.308594,9.164062 12.230469,9.1875 12.199219,9.453125 12.199219,10.058594L12.199219,10.910156 11.933594,11C11.691406,11.074219 10.164062,11.480469 3.503906,13.277344 2.574219,13.527344 1.742188,13.792969 1.660156,13.867188 1.386719,14.113281 1.292969,14.519531 1.445312,14.835938 1.710938,15.390625 1.3125,15.355469 8.308594,15.378906L14.664062,15.398438 14.722656,16.914062C14.78125,18.269531,15.027344,21.367188,15.144531,22.101562L15.195312,22.390625 13.675781,23.261719C12.839844,23.734375 12.074219,24.214844 11.976562,24.328125 11.726562,24.585938 11.71875,25.066406 11.949219,25.355469 12.199219,25.671875 12.589844,25.746094 14.03125,25.746094 15.105469,25.746094 15.351562,25.71875 15.4375,25.621094 15.535156,25.503906 15.578125,25.523438 15.824219,25.761719L16.097656,26.027344 16.375,25.761719C16.621094,25.523438 16.664062,25.503906 16.761719,25.621094 16.847656,25.71875 17.09375,25.746094 18.164062,25.746094 19.609375,25.746094 20,25.671875 20.25,25.355469 20.480469,25.066406 20.472656,24.585938 20.230469,24.328125 20.125,24.214844 19.359375,23.734375 18.523438,23.261719L17.003906,22.390625 17.054688,22.101562C17.171875,21.375,17.417969,18.269531,17.476562,16.914062L17.535156,15.398438 23.890625,15.378906C30.886719,15.355469 30.488281,15.390625 30.753906,14.835938 30.90625,14.519531 30.8125,14.113281 30.539062,13.867188 30.457031,13.792969 29.625,13.527344 28.695312,13.269531 22.6875,11.664062 20.507812,11.074219 20.273438,11L20,10.910156 20,10.058594C20,9.453125 19.96875,9.1875 19.902344,9.164062 19.84375,9.140625 20.007812,9.113281 20.273438,9.113281 20.621094,9.105469 20.746094,9.082031 20.722656,9 20.695312,8.933594 20.523438,8.90625 20.132812,8.933594 19.652344,8.957031 19.550781,8.933594 19.410156,8.78125 19.203125,8.566406 19.128906,8.566406 18.972656,8.78125 18.855469,8.949219 18.796875,8.957031 18.265625,8.914062 17.785156,8.875 17.675781,8.890625 17.675781,8.988281 17.675781,9.074219 17.792969,9.105469 18.15625,9.113281 18.414062,9.113281 18.582031,9.140625 18.53125,9.164062 18.457031,9.1875 18.421875,9.453125 18.421875,10.066406L18.421875,10.925781 17.453125,10.925781 17.402344,10.117188C17.238281,7.683594 16.730469,6.125 16.097656,6.125 16.015625,6.125 15.84375,6.207031 15.726562,6.308594z"/></svg>
