<svg viewBox="0 0 32 32" xmlns="http://www.w3.org/2000/svg"><path d="M15.738281,0.113281C15.355469,0.363281 15.074219,0.917969 14.867188,1.855469 14.730469,2.449219 14.726562,2.605469 14.695312,7.585938L14.65625,12.710938 13.875,13.011719C13.445312,13.175781,12.992188,13.351562,12.867188,13.398438L12.644531,13.492188 12.730469,13.167969C12.84375,12.769531 12.8125,11.792969 12.679688,11.53125 12.550781,11.261719 12.355469,11.1875 11.71875,11.1875 11.082031,11.1875 10.90625,11.257812 10.730469,11.542969 10.449219,12.023438 10.5625,13.300781 10.914062,13.613281 11,13.6875 11.074219,13.824219 11.082031,13.914062 11.09375,14.074219 11.019531,14.105469 6.757812,15.757812 1.980469,17.601562 2.113281,17.53125 1.875,18.175781 1.742188,18.523438 1.613281,19.488281 1.695312,19.53125 1.710938,19.550781 1.804688,19.417969 1.898438,19.25 2.144531,18.800781 2.351562,18.648438 2.804688,18.605469 3.238281,18.5625 5.886719,18.039062 9.007812,17.382812L11.113281,16.9375 14.488281,16.9375 14.554688,17.132812C14.605469,17.269531 14.625,18.574219 14.625,21.273438 14.625,25.144531 14.632812,25.238281 14.78125,26.28125 14.863281,26.867188 14.976562,27.488281 15.023438,27.648438 15.074219,27.820312 15.105469,27.980469 15.085938,28.011719 15.050781,28.074219 14.273438,28.644531 12.582031,29.863281L11.261719,30.8125 11.164062,31.230469C11.113281,31.460938 11.074219,31.65625 11.082031,31.664062 11.085938,31.675781 12.070312,31.4375 13.261719,31.136719 14.457031,30.835938 15.445312,30.613281 15.460938,30.625 15.476562,30.644531 15.542969,30.949219 15.550781,31.113281 15.699219,31.773438 15.820312,32 16,32 16.179688,32 16.300781,31.773438 16.449219,31.113281 16.554688,30.675781 16.617188,30.5 16.6875,30.5 16.738281,30.5 17.695312,30.757812 18.8125,31.0625 19.925781,31.375 20.917969,31.675781 20.917969,31.664062 20.925781,31.65625 20.886719,31.460938 20.835938,31.230469L20.738281,30.8125 19.417969,29.863281C17.726562,28.644531 16.949219,28.074219 16.914062,28.011719 16.894531,27.980469 16.925781,27.820312 16.976562,27.648438 17.023438,27.488281 17.136719,26.867188 17.21875,26.28125 17.367188,25.238281 17.375,25.144531 17.375,21.273438 17.375,18.574219 17.394531,17.269531 17.445312,17.132812L17.511719,16.9375 20.882812,16.9375 23.738281,17.523438C25.304688,17.851562 27.210938,18.230469 27.96875,18.375 28.726562,18.519531 29.40625,18.667969 29.488281,18.707031 29.5625,18.742188 29.773438,18.949219 29.949219,19.164062 30.132812,19.375 30.292969,19.542969 30.3125,19.53125 30.386719,19.488281 30.25,18.511719 30.125,18.175781 29.886719,17.53125 30.019531,17.601562 25.242188,15.757812 20.980469,14.105469 20.90625,14.074219 20.917969,13.914062 20.925781,13.824219 21,13.6875 21.085938,13.613281 21.4375,13.300781 21.550781,12.023438 21.269531,11.542969 21.09375,11.257812 20.917969,11.1875 20.28125,11.1875 19.644531,11.1875 19.449219,11.261719 19.320312,11.53125 19.1875,11.792969 19.15625,12.769531 19.269531,13.167969L19.355469,13.492188 19.132812,13.398438C19.007812,13.351562,18.554688,13.175781,18.125,13.011719L17.34375,12.710938 17.304688,7.585938C17.273438,2.605469 17.269531,2.449219 17.132812,1.855469 16.988281,1.207031 16.773438,0.664062 16.5625,0.386719 16.40625,0.1875 16.132812,0 16,0 15.949219,0 15.832031,0.0507812 15.738281,0.113281z"/></svg>
