<svg viewBox="0 0 32 32" xmlns="http://www.w3.org/2000/svg"><path d="M15.679688,0.230469C15.117188,0.882812 14.757812,2.3125 14.625,4.4375 14.59375,5.007812 14.5625,7.40625 14.5625,9.78125L14.5625,14.09375 9.699219,16.367188C5.949219,18.117188 4.800781,18.6875 4.636719,18.851562 4.445312,19.054688 4.4375,19.074219 4.4375,19.625 4.4375,19.957031 4.460938,20.1875 4.5,20.1875 4.53125,20.1875 5.289062,20.019531 6.167969,19.8125 7.054688,19.605469 8.625,19.292969 9.65625,19.117188L11.53125,18.800781 12.625,18.867188C13.226562,18.90625,13.894531,18.957031,14.113281,18.976562L14.5,19.011719 14.5,20.601562C14.5,21.476562 14.480469,22.1875 14.457031,22.1875 14.425781,22.179688 14.351562,22.09375 14.28125,21.988281 14.136719,21.757812 13.988281,21.699219 13.449219,21.695312 13.113281,21.6875 13.039062,21.707031 12.90625,21.84375L12.75,21.992188 12.75,23.695312C12.75,25.429688 12.792969,25.855469 13.039062,26.324219 13.125,26.488281 13.15625,26.5 13.53125,26.5L13.9375,26.5 14.113281,26.195312C14.28125,25.894531 14.289062,25.886719 14.449219,25.976562 14.585938,26.050781 14.625,26.117188 14.65625,26.417969 14.738281,27.101562 14.945312,28.082031 15.09375,28.476562L15.242188,28.867188 14.917969,28.988281C14.738281,29.054688 14.03125,29.300781 13.34375,29.53125 12.519531,29.8125 12.039062,30.011719 11.925781,30.113281 11.730469,30.292969 11.59375,30.679688 11.53125,31.207031L11.492188,31.5625 11.699219,31.5625C11.8125,31.5625 12.679688,31.4375 13.625,31.28125 14.570312,31.125 15.367188,31.007812 15.414062,31.023438 15.449219,31.039062 15.519531,31.175781 15.554688,31.332031 15.667969,31.730469 15.851562,32 16,32 16.148438,32 16.332031,31.730469 16.445312,31.332031 16.480469,31.175781 16.550781,31.039062 16.585938,31.023438 16.632812,31.007812 17.429688,31.125 18.375,31.28125 19.320312,31.4375 20.1875,31.5625 20.300781,31.5625L20.507812,31.5625 20.46875,31.207031C20.40625,30.679688 20.269531,30.292969 20.074219,30.113281 19.960938,30.007812 19.429688,29.800781 18.46875,29.46875 17.679688,29.199219 16.96875,28.957031 16.894531,28.929688L16.757812,28.882812 16.90625,28.480469C17.054688,28.082031 17.261719,27.105469 17.34375,26.417969 17.375,26.117188 17.414062,26.050781 17.550781,25.976562 17.710938,25.886719 17.71875,25.894531 17.886719,26.195312L18.0625,26.5 18.46875,26.5C18.851562,26.5 18.875,26.492188 18.96875,26.3125 19.195312,25.875 19.25,25.386719 19.25,23.667969L19.25,21.992188 19.09375,21.84375C18.960938,21.707031 18.886719,21.6875 18.550781,21.695312 18.011719,21.699219 17.863281,21.757812 17.71875,21.988281 17.648438,22.09375 17.574219,22.179688 17.550781,22.1875 17.519531,22.1875 17.5,21.476562 17.5,20.601562L17.5,19.011719 17.894531,18.976562C18.105469,18.957031,18.773438,18.90625,19.375,18.867188L20.46875,18.800781 22.34375,19.117188C23.375,19.292969 24.945312,19.605469 25.832031,19.8125 26.710938,20.019531 27.46875,20.1875 27.5,20.1875 27.539062,20.1875 27.5625,19.957031 27.5625,19.625 27.5625,19.074219 27.554688,19.054688 27.363281,18.851562 27.199219,18.6875 26.050781,18.117188 22.300781,16.367188L17.4375,14.09375 17.4375,9.78125C17.4375,4.398438 17.367188,3.179688 17,1.730469 16.769531,0.832031 16.289062,0 16,0 15.9375,0 15.792969,0.105469 15.679688,0.230469z"/></svg>
