<svg viewBox="0 0 32 32" xmlns="http://www.w3.org/2000/svg"><path d="M15.98,1.19C15.96,1.24,15.95,1.34,15.95,1.41C15.95,1.48,15.87,1.72,15.79,1.94C15.6,2.41,15.29,3.57,15.19,4.17C15.16,4.4,15.11,4.59,15.08,4.59C15.05,4.59,15.04,4.62,15.06,4.67C15.08,4.71,15,5.32,14.89,6.02C14.77,6.71,14.63,7.67,14.59,8.16C14.47,9.31,14.1,11.21,13.81,12.11C13.69,12.51,13.53,13.16,13.47,13.57C13.38,14.11,13.32,14.33,13.24,14.41C13.18,14.46,12.02,15.41,10.66,16.51L8.19,18.5L8.17,18.26C8.16,18.1,8.13,18.03,8.07,18.03C8.02,18.03,8,18.1,8,18.34L8,18.65L7.52,19.03L7.04,19.41L7.03,19.7C7.02,19.85,7,19.48,6.98,18.88C6.94,17.65,6.87,16.93,6.78,16.84C6.74,16.79,6.72,17.48,6.72,19.43L6.72,22.09L6.84,22.07C6.94,22.06,6.97,22.02,6.98,21.85L6.99,21.65L7.31,21.65C7.56,21.65,7.62,21.67,7.64,21.74C7.66,21.83,7.67,21.83,7.67,21.74C7.68,21.63,8,21.61,8,21.73C8,21.78,8.03,21.81,8.05,21.81C8.09,21.81,8.11,21.78,8.11,21.73C8.11,21.67,8.18,21.65,8.43,21.65C8.69,21.65,8.75,21.67,8.75,21.74C8.75,21.83,8.75,21.83,8.82,21.74C8.89,21.66,9.07,21.65,11.41,21.65L13.92,21.65L13.92,22.78L13.92,23.92L12.68,24.99C12.01,25.57,11.23,26.25,10.95,26.5L10.45,26.94L10.45,27.5L10.45,28.07L10.71,28.3L10.98,28.54L12.41,28.54C13.19,28.53,13.85,28.52,13.86,28.51C13.87,28.49,13.89,28.37,13.89,28.23L13.89,27.97L14.26,27.96L14.61,27.94L14.61,26.8C14.61,25.43,14.67,25.31,14.83,26.29C14.94,26.99,15.1,27.77,15.18,28.01L15.26,28.27L15.61,28.27L15.95,28.27L15.95,28.47C15.95,28.59,15.97,28.7,16,28.72C16.03,28.74,16.05,28.66,16.05,28.51L16.05,28.27L16.39,28.27L16.73,28.27L16.82,28.04C16.9,27.8,17.08,26.97,17.17,26.32C17.25,25.77,17.29,25.65,17.34,25.65C17.37,25.65,17.39,26.14,17.39,26.8L17.39,27.95L17.73,27.95L18.08,27.95L18.08,28.24L18.08,28.53L19.19,28.54C19.8,28.54,20.45,28.54,20.66,28.54C21,28.54,21.02,28.53,21.28,28.32L21.55,28.1L21.55,27.5L21.54,26.91L19.96,25.54C19.09,24.78,18.31,24.1,18.23,24.03L18.08,23.89L18.08,22.77L18.08,21.65L20.65,21.65C22.21,21.65,23.19,21.67,23.17,21.7C23.16,21.73,23.17,21.77,23.2,21.79C23.23,21.8,23.25,21.78,23.25,21.74C23.25,21.67,23.32,21.65,23.61,21.65C23.81,21.65,23.94,21.67,23.92,21.7C23.9,21.73,23.91,21.77,23.95,21.79C23.97,21.8,24,21.78,24,21.74C24,21.61,24.32,21.62,24.32,21.74C24.33,21.83,24.33,21.83,24.39,21.74C24.45,21.68,24.54,21.65,24.74,21.65L25.01,21.65L25.02,21.85C25.03,22.02,25.06,22.06,25.16,22.07L25.28,22.09L25.28,19.43C25.28,17.48,25.26,16.79,25.22,16.84C25.13,16.93,25.06,17.65,25.02,18.88C25,19.48,24.98,19.85,24.97,19.7L24.96,19.41L24.48,19.03L24,18.65L24,18.34C24,18.1,23.98,18.03,23.93,18.03C23.87,18.03,23.84,18.1,23.83,18.26L23.81,18.49L21.33,16.5C19.97,15.4,18.81,14.46,18.76,14.41C18.69,14.34,18.62,14.09,18.54,13.54C18.46,13.1,18.32,12.49,18.2,12.11C17.93,11.28,17.53,9.23,17.41,8.08C17.37,7.61,17.23,6.66,17.11,5.97C16.95,5.01,16.92,4.71,16.98,4.68C17.02,4.66,17.02,4.63,16.95,4.58C16.9,4.53,16.84,4.35,16.8,4.11C16.71,3.54,16.39,2.34,16.23,1.96C16.16,1.78,16.08,1.5,16.06,1.36C16.04,1.17,16.01,1.12,15.98,1.19Z"/></svg>
