<svg viewBox="0 0 32 32" xmlns="http://www.w3.org/2000/svg"><path d="M15.66,1.2C14.99,2.21,14.76,3.07,14.47,5.68C14.25,7.55,13.88,9.8,13.79,9.8C13.76,9.8,13.55,9.6,13.32,9.37C12.52,8.56,12.34,8.96,12.21,11.77L12.14,13.38L11.76,14.05L11.37,14.73L10.8,15.05C10.48,15.22,9.99,15.5,9.7,15.67C9.41,15.84,9,16.08,8.78,16.21C8.56,16.33,7.49,16.94,6.41,17.57L4.44,18.71L4.44,20.2C4.44,21.68,4.44,21.68,4.59,21.75C4.74,21.82,8.87,22.96,9.31,23.06C9.45,23.1,9.74,23.18,9.96,23.24C11.23,23.63,11.68,23.77,11.83,23.81C12,23.85,12.11,24.08,12.02,24.22C11.99,24.26,10.53,25.18,8.9,26.18L8.62,26.35L8.62,27.71C8.62,29.03,8.62,29.06,8.75,29.06C8.83,29.06,9.1,29.1,9.36,29.16C11.6,29.61,13.67,29.98,13.71,29.93C13.74,29.9,13.84,29.32,13.94,28.64C14.03,27.95,14.16,27.29,14.21,27.17C14.27,27.04,14.33,26.71,14.35,26.43C14.39,25.8,14.41,25.81,14.53,26.64C14.64,27.42,14.61,27.37,14.96,27.39C15.12,27.4,15.27,27.42,15.28,27.43C15.37,27.47,15.78,27.46,15.85,27.41C15.91,27.37,15.97,27.38,16.03,27.43C16.1,27.48,16.16,27.49,16.21,27.45C16.26,27.41,16.4,27.38,16.54,27.38C16.86,27.38,16.83,27.44,16.95,26.64C17.07,25.81,17.08,25.8,17.14,26.43C17.17,26.71,17.23,27.01,17.27,27.1C17.32,27.19,17.45,27.87,17.56,28.6C17.68,29.34,17.78,29.95,17.79,29.96C17.8,29.97,18.95,29.76,20.35,29.5L22.89,29.02L22.89,27.73C22.89,27.02,22.87,26.41,22.85,26.38C22.82,26.33,20.45,24.84,19.98,24.57C19.49,24.3,19.43,24.24,19.41,24.09C19.38,23.87,19.46,23.82,20.11,23.65C20.42,23.57,20.8,23.46,20.96,23.41C21.13,23.36,22.48,22.97,23.97,22.56C25.46,22.14,26.75,21.78,26.84,21.75L27,21.7L27.02,20.21L27.04,18.71L25.36,17.72C24.43,17.18,23.1,16.4,22.4,15.99C21.7,15.59,20.89,15.12,20.61,14.96C20.09,14.66,20.08,14.64,19.71,14.01L19.34,13.36L19.24,11.48C19.14,9.55,19.13,9.48,18.82,9.08L18.69,8.92L18.2,9.36C17.64,9.87,17.66,9.86,17.61,9.58C17.37,8.21,17.27,7.5,17.05,5.71C16.68,2.8,16.66,2.7,16.15,1.65C15.82,0.99,15.8,0.97,15.66,1.2Z"/></svg>
