<svg viewBox="0 0 32 32" xmlns="http://www.w3.org/2000/svg"><path d="M15.5625,0.09375C14.761719,0.320312 13.992188,0.875 13.367188,1.6875 12.675781,2.582031 12.007812,4.164062 11.71875,5.582031L11.605469,6.132812 8.601562,3.136719C5.992188,0.539062 5.5625,0.132812 5.367188,0.101562 4.949219,0.0234375 4.53125,0.289062 4.460938,0.675781 4.367188,1.15625 4.355469,1.136719 8,4.78125L11.4375,8.21875 11.4375,8.59375C11.445312,10.039062,11.84375,11.957031,12.425781,13.292969L12.667969,13.863281 8.613281,17.914062C5.40625,21.117188 4.542969,22.019531 4.488281,22.199219 4.300781,22.820312 4.769531,23.332031 5.386719,23.195312 5.625,23.136719 6.039062,22.742188 9.585938,19.195312 11.757812,17.023438 13.554688,15.25 13.585938,15.25 13.613281,15.25 13.835938,15.429688 14.074219,15.65625 14.320312,15.882812 14.539062,16.0625 14.570312,16.0625 14.601562,16.0625 14.625,18.414062 14.625,21.488281L14.625,26.914062 9.8125,30.148438 9.8125,31.074219C9.8125,31.9375 9.820312,32 9.925781,31.949219 9.980469,31.917969 11.117188,31.414062 12.445312,30.820312L14.863281,29.75 17.6875,29.75 19.949219,30.757812C21.199219,31.3125,22.335938,31.820312,22.488281,31.882812L22.75,31.992188 22.75,31.074219 22.742188,30.15625 20.324219,28.523438 17.90625,26.898438 17.886719,21.519531 17.875,16.132812 18.074219,15.992188C18.1875,15.917969,18.375,15.769531,18.488281,15.664062L18.695312,15.476562 22.519531,19.300781C25.96875,22.75 26.382812,23.136719 26.613281,23.195312 27.210938,23.324219 27.664062,22.863281 27.53125,22.238281 27.492188,22.070312 26.75,21.292969 23.585938,18.125L19.679688,14.210938 19.992188,13.5625C20.699219,12.042969,21.054688,10.386719,21.070312,8.53125L21.074219,7.71875 24.28125,4.5C27.101562,1.675781 27.492188,1.25 27.53125,1.050781 27.613281,0.601562 27.425781,0.257812 27.023438,0.125 26.5625,-0.03125 26.554688,-0.0234375 23.625,2.90625 22.132812,4.398438 20.894531,5.625 20.867188,5.625 20.851562,5.625 20.78125,5.40625 20.726562,5.136719 20.144531,2.667969 18.820312,0.773438 17.257812,0.179688 16.792969,0.0078125 16.023438,-0.03125 15.5625,0.09375z"/></svg>
